<svg width="21" height="20" viewBox="0 0 21 20" fill="none" xmlns="http://www.w3.org/2000/svg">
<path opacity="0.4" d="M13.1072 11.4557C12.9667 11.591 12.7789 11.6667 12.5834 11.6667C12.3879 11.6667 12.2001 11.591 12.0596 11.4557C10.7727 10.2087 9.048 8.81567 9.88908 6.79322C10.3438 5.69972 11.4354 5 12.5834 5C13.7314 5 14.823 5.69972 15.2777 6.79322C16.1177 8.81308 14.3973 10.2129 13.1072 11.4557Z" stroke="#475569" stroke-width="1.5"/>
<path opacity="0.4" d="M12.5833 7.91666H12.5908" stroke="#475569" stroke-width="1.5" stroke-linecap="round" stroke-linejoin="round"/>
<path d="M2.58333 10C2.58333 6.26806 2.58333 4.40209 3.7427 3.24271C4.90208 2.08334 6.76805 2.08334 10.5 2.08334C14.2319 2.08334 16.0979 2.08334 17.2573 3.24271C18.4167 4.40209 18.4167 6.26806 18.4167 10C18.4167 13.7319 18.4167 15.5979 17.2573 16.7573C16.0979 17.9167 14.2319 17.9167 10.5 17.9167C6.76805 17.9167 4.90208 17.9167 3.7427 16.7573C2.58333 15.5979 2.58333 13.7319 2.58333 10Z" stroke="#475569" stroke-width="1.5"/>
<path opacity="0.4" d="M3 5.83334L14.6667 17.5M8.83333 11.6667L3.83333 16.6667" stroke="#475569" stroke-width="1.5" stroke-linecap="round" stroke-linejoin="round"/>
</svg>
