<svg width="20" height="20" viewBox="0 0 20 20" fill="none" xmlns="http://www.w3.org/2000/svg">
<path d="M12.0833 7.50001C12.0833 8.65059 11.1506 9.58334 10 9.58334C8.84942 9.58334 7.91667 8.65059 7.91667 7.50001C7.91667 6.34941 8.84942 5.41667 10 5.41667C11.1506 5.41667 12.0833 6.34941 12.0833 7.50001Z" stroke="#7C4DFF" stroke-width="1.5"/>
<path d="M11.0478 14.578C10.7668 14.8487 10.3911 15 10.0002 15C9.60917 15 9.2335 14.8487 8.95242 14.578C6.37859 12.084 2.92933 9.29792 4.61143 5.25311C5.52092 3.06611 7.70412 1.66667 10.0002 1.66667C12.2962 1.66667 14.4793 3.06611 15.3888 5.25311C17.0688 9.29284 13.628 12.0926 11.0478 14.578Z" stroke="#7C4DFF" stroke-width="1.5"/>
<path opacity="0.4" d="M15 16.6667C15 17.5872 12.7614 18.3333 10 18.3333C7.23857 18.3333 5 17.5872 5 16.6667" stroke="#7C4DFF" stroke-width="1.5" stroke-linecap="round"/>
</svg>
