<svg width="20" height="20" viewBox="0 0 20 20" fill="none" xmlns="http://www.w3.org/2000/svg">
<g clip-path="url(#clip0_4_889)">
<path opacity="0.4" d="M1.66666 15C1.66666 13.7163 1.66666 13.0744 1.95561 12.6029C2.11728 12.3391 2.33911 12.1172 2.60294 11.9556C3.07445 11.6667 3.7163 11.6667 5 11.6667C6.2837 11.6667 6.92555 11.6667 7.39706 11.9556C7.66089 12.1172 7.88271 12.3391 8.04439 12.6029C8.33333 13.0744 8.33333 13.7163 8.33333 15C8.33333 16.2837 8.33333 16.9256 8.04439 17.3971C7.88271 17.6609 7.66089 17.8827 7.39706 18.0444C6.92555 18.3333 6.2837 18.3333 5 18.3333C3.7163 18.3333 3.07445 18.3333 2.60294 18.0444C2.33911 17.8827 2.11728 17.6609 1.95561 17.3971C1.66666 16.9256 1.66666 16.2837 1.66666 15Z" stroke="#475569" stroke-width="1.5"/>
<path d="M11.6667 15C11.6667 13.7163 11.6667 13.0744 11.9556 12.6029C12.1172 12.3391 12.3391 12.1172 12.6029 11.9556C13.0744 11.6667 13.7163 11.6667 15 11.6667C16.2837 11.6667 16.9256 11.6667 17.3971 11.9556C17.6609 12.1172 17.8827 12.3391 18.0444 12.6029C18.3333 13.0744 18.3333 13.7163 18.3333 15C18.3333 16.2837 18.3333 16.9256 18.0444 17.3971C17.8827 17.6609 17.6609 17.8827 17.3971 18.0444C16.9256 18.3333 16.2837 18.3333 15 18.3333C13.7163 18.3333 13.0744 18.3333 12.6029 18.0444C12.3391 17.8827 12.1172 17.6609 11.9556 17.3971C11.6667 16.9256 11.6667 16.2837 11.6667 15Z" stroke="#475569" stroke-width="1.5"/>
<path d="M1.66666 4.99999C1.66666 3.71629 1.66666 3.07444 1.95561 2.60293C2.11728 2.3391 2.33911 2.11727 2.60294 1.9556C3.07445 1.66666 3.7163 1.66666 5 1.66666C6.2837 1.66666 6.92555 1.66666 7.39706 1.9556C7.66089 2.11727 7.88271 2.3391 8.04439 2.60293C8.33333 3.07444 8.33333 3.71629 8.33333 4.99999C8.33333 6.28369 8.33333 6.92554 8.04439 7.39705C7.88271 7.66088 7.66089 7.88271 7.39706 8.04438C6.92555 8.33332 6.2837 8.33332 5 8.33332C3.7163 8.33332 3.07445 8.33332 2.60294 8.04438C2.33911 7.88271 2.11728 7.66088 1.95561 7.39705C1.66666 6.92554 1.66666 6.28369 1.66666 4.99999Z" stroke="#475569" stroke-width="1.5"/>
<path opacity="0.4" d="M11.6667 4.99999C11.6667 3.71629 11.6667 3.07444 11.9556 2.60293C12.1172 2.3391 12.3391 2.11727 12.6029 1.9556C13.0744 1.66666 13.7163 1.66666 15 1.66666C16.2837 1.66666 16.9256 1.66666 17.3971 1.9556C17.6609 2.11727 17.8827 2.3391 18.0444 2.60293C18.3333 3.07444 18.3333 3.71629 18.3333 4.99999C18.3333 6.28369 18.3333 6.92554 18.0444 7.39705C17.8827 7.66088 17.6609 7.88271 17.3971 8.04438C16.9256 8.33332 16.2837 8.33332 15 8.33332C13.7163 8.33332 13.0744 8.33332 12.6029 8.04438C12.3391 7.88271 12.1172 7.66088 11.9556 7.39705C11.6667 6.92554 11.6667 6.28369 11.6667 4.99999Z" stroke="#475569" stroke-width="1.5"/>
</g>
<defs>
<clipPath id="clip0_4_889">
<rect width="20" height="20" fill="white"/>
</clipPath>
</defs>
</svg>
