<svg width="20" height="20" viewBox="0 0 20 20" fill="none" xmlns="http://www.w3.org/2000/svg">
<path opacity="0.4" d="M12.0833 10C12.0833 11.1506 11.1506 12.0833 10 12.0833C8.84942 12.0833 7.91667 11.1506 7.91667 10C7.91667 8.84942 8.84942 7.91667 10 7.91667C11.1506 7.91667 12.0833 8.84942 12.0833 10Z" stroke="#7C4DFF" stroke-width="1.5"/>
<path opacity="0.4" d="M15.8333 9.285C15.5624 9.24575 15.2842 9.21592 15 9.196M5.00001 10.8048C4.71581 10.785 4.4376 10.7551 4.16667 10.7158" stroke="#7C4DFF" stroke-width="1.5" stroke-linecap="round" stroke-linejoin="round"/>
<path d="M10 16.25C8.88959 16.7687 7.4309 17.0833 5.83334 17.0833C4.94507 17.0833 4.09975 16.9861 3.33334 16.8105C2.08298 16.5241 1.66667 15.772 1.66667 14.4883V5.51165C1.66667 4.69095 2.53336 4.12728 3.33334 4.3105C4.09975 4.48605 4.94507 4.58334 5.83334 4.58334C7.4309 4.58334 8.88959 4.26864 10 3.75001C11.1104 3.23137 12.5691 2.91667 14.1667 2.91667C15.0549 2.91667 15.9003 3.01396 16.6667 3.18951C17.9848 3.49141 18.3333 4.26697 18.3333 5.51165V14.4883C18.3333 15.3091 17.4667 15.8728 16.6667 15.6895C15.9003 15.5139 15.0549 15.4167 14.1667 15.4167C12.5691 15.4167 11.1104 15.7313 10 16.25Z" stroke="#7C4DFF" stroke-width="1.5"/>
</svg>
