<svg width="20" height="21" viewBox="0 0 20 21" fill="none" xmlns="http://www.w3.org/2000/svg">
<path opacity="0.4" d="M10 14.25V12.5833" stroke="#7C4DFF" stroke-width="1.5" stroke-linecap="round"/>
<path d="M3.5565 16.2039C3.7439 17.5958 4.89677 18.6862 6.29971 18.7507C7.48022 18.805 8.67942 18.8333 10 18.8333C11.3206 18.8333 12.5197 18.805 13.7002 18.7507C15.1032 18.6862 16.2561 17.5958 16.4435 16.2039C16.5658 15.2956 16.6667 14.3647 16.6667 13.4167C16.6667 12.4687 16.5658 11.5378 16.4435 10.6294C16.2561 9.2375 15.1032 8.14707 13.7002 8.08257C12.5197 8.02831 11.3206 8 10 8C8.67942 8 7.48022 8.02831 6.29971 8.08257C4.89677 8.14707 3.7439 9.2375 3.5565 10.6294C3.4342 11.5378 3.33332 12.4687 3.33332 13.4167C3.33332 14.3647 3.4342 15.2956 3.5565 16.2039Z" stroke="#7C4DFF" stroke-width="1.5"/>
<path opacity="0.4" d="M6.25 8.00001V5.91667C6.25 3.84561 7.92893 2.16667 10 2.16667C12.0711 2.16667 13.75 3.84561 13.75 5.91667V8.00001" stroke="#7C4DFF" stroke-width="1.5" stroke-linecap="round" stroke-linejoin="round"/>
</svg>
