<svg width="20" height="20" viewBox="0 0 20 20" fill="none" xmlns="http://www.w3.org/2000/svg">
<g clip-path="url(#clip0_4_860)">
<path d="M10 18.3333C14.6024 18.3333 18.3333 14.6024 18.3333 10C18.3333 5.39763 14.6024 1.66667 10 1.66667C5.39763 1.66667 1.66667 5.39763 1.66667 10C1.66667 14.6024 5.39763 18.3333 10 18.3333Z" stroke="#7C4DFF" stroke-width="1.5"/>
<path opacity="0.4" d="M6.25 14.1667C8.19308 12.1315 11.786 12.0357 13.75 14.1667M12.0792 7.91666C12.0792 9.06724 11.1452 9.99999 9.99292 9.99999C8.84075 9.99999 7.90664 9.06724 7.90664 7.91666C7.90664 6.76607 8.84075 5.83333 9.99292 5.83333C11.1452 5.83333 12.0792 6.76607 12.0792 7.91666Z" stroke="#7C4DFF" stroke-width="1.5" stroke-linecap="round"/>
</g>
<defs>
<clipPath id="clip0_4_860">
<rect width="20" height="20" fill="white"/>
</clipPath>
</defs>
</svg>
