<svg width="46" height="46" viewBox="0 0 46 46" fill="none" xmlns="http://www.w3.org/2000/svg">
<g id="Driver Image ">
<rect id="Rectangle 3444" width="46" height="46" rx="4" fill="#D9D9D9"/>
<g id="Mask group">
<mask id="mask0_506_10033" style="mask-type:alpha" maskUnits="userSpaceOnUse" x="0" y="0" width="46" height="46">
<rect id="Rectangle 3445" width="46" height="46" rx="4" fill="#D9D9D9"/>
</mask>
<g mask="url(#mask0_506_10033)">
<path id="&#240;&#159;&#142;&#168; Icon &#208;&#161;olor" fill-rule="evenodd" clip-rule="evenodd" d="M32.6905 15.8891C32.6905 21.264 28.3194 25.6351 22.9445 25.6351C17.5696 25.6351 13.1985 21.264 13.1985 15.8891C13.1985 10.5142 17.5696 6.1431 22.9445 6.1431C28.3194 6.1431 32.6905 10.5142 32.6905 15.8891ZM39.9996 47.5635C39.9996 48.9084 38.9105 50 37.5631 50H8.32517C6.97779 50 5.88867 48.9084 5.88867 47.5635C5.88867 38.1586 13.5417 30.508 22.9441 30.508C32.3466 30.508 39.9996 38.1586 39.9996 47.5635Z" fill="#9C9C9C"/>
</g>
</g>
</g>
</svg>
