<svg width="10" height="10" viewBox="0 0 10 10" fill="none" xmlns="http://www.w3.org/2000/svg">
<g id="Frame" clip-path="url(#clip0_313_104717)">
<g id="Group">
<path id="Vector" d="M9.78134 8.80708L8.90837 3.59198C8.86848 3.35395 8.74545 3.1378 8.56117 2.98195C8.37689 2.82611 8.1433 2.74069 7.90196 2.74088H6.59033C6.74914 2.46431 6.8325 2.15087 6.83208 1.83195C6.83208 0.821853 6.01044 0 5.00013 0C3.99003 0 3.16818 0.821853 3.16818 1.83195C3.16818 2.16251 3.25613 2.47292 3.40993 2.74088H2.0983C1.85691 2.74075 1.62329 2.82625 1.43901 2.98217C1.25473 3.13809 1.13173 3.35433 1.09189 3.59241L0.21913 8.80816C0.19461 8.95456 0.202247 9.10454 0.241512 9.2477C0.280776 9.39085 0.350727 9.52374 0.446507 9.63714C0.542287 9.75054 0.661601 9.84174 0.796166 9.9044C0.93073 9.96706 1.07732 9.99968 1.22576 10H8.77536C8.92386 9.99962 9.07048 9.9669 9.20506 9.90414C9.33963 9.84137 9.45893 9.75006 9.55466 9.63654C9.65038 9.52303 9.72025 9.39003 9.75939 9.24679C9.79854 9.10355 9.80603 8.95351 9.78134 8.80708ZM5.00035 1.06728C5.2031 1.06757 5.39746 1.14825 5.5408 1.29164C5.68415 1.43503 5.76478 1.62941 5.76501 1.83216C5.76478 2.0349 5.68414 2.22926 5.54079 2.37261C5.39744 2.51596 5.20308 2.5966 5.00035 2.59683C4.57859 2.59683 4.23546 2.2537 4.23546 1.83195C4.23546 1.41019 4.57859 1.06728 5.00035 1.06728Z" fill="#424242"/>
</g>
</g>
<defs>
<clipPath id="clip0_313_104717">
<rect width="10" height="10" fill="white"/>
</clipPath>
</defs>
</svg>
