<svg width="10" height="10" viewBox="0 0 10 10" fill="none" xmlns="http://www.w3.org/2000/svg">
<g id="Frame" clip-path="url(#clip0_313_104720)">
<g id="Group">
<path id="Vector" d="M0.49711 3.30636V9.37572C0.49711 9.58381 0.67052 9.74566 0.867052 9.74566H9.12139C9.32948 9.74566 9.49133 9.57225 9.49133 9.37572V3.30636H0.49711ZM6.86705 5.63006C6.86705 5.83815 6.69364 6 6.49711 6H3.49133C3.28324 6 3.12139 5.82659 3.12139 5.63006V4.87861C3.12139 4.67052 3.2948 4.50867 3.49133 4.50867H6.49711C6.7052 4.50867 6.86705 4.68208 6.86705 4.87861V5.63006ZM9.6185 0.254333H0.369942C0.16185 0.254333 0 0.427744 0 0.624276V2.80925H10V0.635836C9.98844 0.427744 9.82659 0.254333 9.6185 0.254333Z" fill="#424242"/>
</g>
</g>
<defs>
<clipPath id="clip0_313_104720">
<rect width="10" height="10" fill="white"/>
</clipPath>
</defs>
</svg>
