<svg xmlns="http://www.w3.org/2000/svg" width="17" height="16" viewBox="0 0 17 16" fill="none">
  <g clip-path="url(#clip0_590_34457)">
    <path d="M14.542 6.71417C14.5625 4.45837 12.5211 2.3904 9.99153 2.10443C9.94122 2.09882 9.88642 2.09027 9.8284 2.08123C9.70317 2.0617 9.57366 2.04163 9.44299 2.04163C8.92455 2.04163 8.78596 2.38438 8.74948 2.58881C8.714 2.78756 8.74784 2.95447 8.84989 3.0851C9.02158 3.30483 9.32368 3.34384 9.56632 3.37509C9.63744 3.38433 9.70454 3.39293 9.76071 3.40481C12.0334 3.88277 12.7987 4.63422 13.1727 6.75507C13.1818 6.80689 13.1859 6.87074 13.1903 6.93847C13.2066 7.19199 13.2406 7.71944 13.8431 7.71944H13.8432C13.8934 7.71944 13.9473 7.71537 14.0034 7.70732C14.5644 7.62707 14.5468 7.14493 14.5384 6.91328C14.536 6.84804 14.5338 6.78632 14.5396 6.74528C14.5412 6.73494 14.542 6.72456 14.542 6.71417Z" fill="#212121"/>
    <path d="M9.29591 1.27642C9.36322 1.28099 9.42695 1.28537 9.48001 1.29302C13.212 1.83319 14.9283 3.49739 15.404 7.03737C15.4121 7.09754 15.4133 7.17093 15.4146 7.24864C15.4194 7.52522 15.4292 8.10057 16.0857 8.1125L16.106 8.11269C16.3119 8.11269 16.4757 8.05426 16.5929 7.93888C16.7972 7.73769 16.783 7.43881 16.7715 7.19861C16.7687 7.13968 16.766 7.08417 16.7667 7.03558C16.8141 3.41511 13.4844 0.132075 9.64103 0.00998758C9.62509 0.00949068 9.60988 0.0102857 9.59452 0.012323C9.57943 0.0141137 9.56422 0.0148941 9.54901 0.0146584C9.51068 0.0146584 9.46354 0.0115279 9.41354 0.00834783C9.35309 0.00447205 9.28456 0 9.21508 0C8.60303 0 8.48667 0.409441 8.47178 0.653515C8.43746 1.21759 9.01726 1.25729 9.29591 1.27642ZM15.2239 11.6126C15.1437 11.5554 15.0643 11.4973 14.9857 11.4383C14.5782 11.1296 14.1447 10.8452 13.7255 10.57C13.6385 10.513 13.5516 10.4559 13.4648 10.3987C12.9277 10.0436 12.4449 9.8711 11.9888 9.8711C11.3744 9.8711 10.8387 10.1906 10.3966 10.8206C10.2008 11.0999 9.96314 11.2357 9.67028 11.2357C9.49711 11.2357 9.30035 11.1892 9.08552 11.0974C7.3521 10.3576 6.11433 9.2233 5.4065 7.72601C5.06434 7.00233 5.17526 6.52929 5.77744 6.1443C6.11939 5.92586 6.75589 5.5192 6.7108 4.74047C6.65975 3.85615 4.5866 1.19533 3.7131 0.893118C3.34327 0.765118 2.9547 0.763925 2.5561 0.890136C1.55194 1.20785 0.831337 1.76581 0.472014 2.5036C0.124781 3.2165 0.140461 4.05356 0.517365 4.92432C1.60695 7.44189 3.13885 9.63687 5.07067 11.4482C6.96158 13.2213 9.28567 14.6737 11.9783 15.765C12.221 15.8633 12.4756 15.9169 12.6615 15.956C12.7248 15.9694 12.7795 15.9808 12.8194 15.9911C12.8413 15.9967 12.8639 15.9997 12.8866 15.9999L12.9078 16H12.9079C14.1744 16 15.695 14.9109 16.1621 13.6691C16.5712 12.5818 15.8242 12.0444 15.2239 11.6126ZM9.85607 4.15225C9.63924 4.15742 9.188 4.16795 9.02967 4.6005C8.9556 4.80263 8.96446 4.97814 9.05606 5.12214C9.19048 5.33342 9.44801 5.39816 9.68227 5.43369C10.5318 5.56199 10.9681 6.00412 11.0554 6.82499C11.0959 7.20775 11.3698 7.47503 11.7214 7.47503C11.7473 7.47503 11.774 7.47359 11.8004 7.47056C12.2233 7.4232 12.4283 7.13078 12.4098 6.60149C12.4165 6.04909 12.1094 5.42196 11.587 4.92243C11.0628 4.42137 10.4308 4.13918 9.85607 4.15225Z" fill="#212121"/>
  </g>
  <defs>
    <clipPath id="clip0_590_34457">
      <rect width="17" height="16" fill="white"/>
    </clipPath>
  </defs>
</svg>