<svg width="27" height="20" viewBox="0 0 27 20" fill="none" xmlns="http://www.w3.org/2000/svg">
<g id="Car Icon">
<g id="Group">
<path id="Vector" d="M22.6735 14.5038L24.6581 14.492C25.0364 14.4897 25.3449 14.7945 25.3472 15.1729L25.3707 19.1137C25.373 19.492 25.0682 19.8005 24.6898 19.8028L22.7052 19.8147C22.3269 19.8169 22.0183 19.5121 22.016 19.1337L21.9925 15.1929C21.9902 14.8146 22.2951 14.5061 22.6735 14.5038ZM2.47725 14.624L4.46191 14.6122C4.8402 14.6099 5.14873 14.9147 5.15103 15.2931L5.17446 19.234C5.1767 19.6123 4.87189 19.9208 4.49354 19.9231L2.50887 19.9349C2.13059 19.9372 1.82206 19.6324 1.81976 19.254L1.79626 15.3132C1.79402 14.9348 2.0989 14.6263 2.47725 14.624ZM24.9295 4.90568C24.8495 4.91323 24.7753 4.95054 24.7216 5.01022C24.6679 5.0699 24.6385 5.14759 24.6394 5.22789C24.6591 5.38489 24.6206 5.54369 24.5313 5.67428C24.4419 5.80488 24.3078 5.89823 24.1544 5.93671L23.6606 5.93976L23.9142 6.67973C23.9142 6.67973 27.093 6.66064 26.9979 5.61653C26.9242 4.8062 25.5445 4.84669 24.9295 4.90568ZM2.07052 4.90568C2.15047 4.91323 2.22467 4.95054 2.2784 5.01022C2.33213 5.0699 2.36148 5.14759 2.36064 5.22789C2.34091 5.38489 2.37935 5.54369 2.46871 5.67428C2.55807 5.80488 2.69216 5.89823 2.84565 5.93671L3.33939 5.93976L3.08585 6.67973C3.08585 6.67973 -0.0929875 6.66064 0.00209109 5.61653C0.0757702 4.8062 1.45549 4.84669 2.07052 4.90568Z" fill="#2F4859"/>
</g>
<path id="Vector_2" d="M26.2891 11.106C26.2298 10.3294 26.0052 9.57454 25.6306 8.8918L24.2907 6.43445C24.2907 6.43445 21.9114 1.07159 20.9202 0.644816C19.9618 0.232132 13.8446 0.139355 13.4393 0.133667H13.4169C13.0116 0.144367 6.89602 0.310212 5.94272 0.734274C4.95659 1.17276 2.64023 6.56271 2.64023 6.56271L1.33087 9.03611C0.964576 9.72324 0.749082 10.4806 0.698773 11.2577C0.606688 12.9741 0.791605 14.6942 1.24642 16.3519C1.35062 16.732 1.57769 17.067 1.89223 17.3046C2.20677 17.5422 2.5911 17.669 2.98526 17.6653L13.521 17.6044H13.5435L24.0792 17.5417C24.4734 17.5406 24.8561 17.4092 25.1677 17.1678C25.4793 16.9265 25.7023 16.5888 25.802 16.2075C26.2375 14.5442 26.402 12.8216 26.2891 11.106Z" fill="#FE7058"/>
<path id="Vector_3" d="M8.37602 14.2928L18.643 14.2315C18.7312 14.231 18.816 14.2655 18.8787 14.3275C18.9415 14.3895 18.977 14.4739 18.9776 14.5621L18.988 16.3103C18.9885 16.3985 18.954 16.4833 18.892 16.5461C18.83 16.6088 18.7456 16.6444 18.6574 16.6449L8.39045 16.7062C8.30224 16.7067 8.21743 16.6722 8.15468 16.6102C8.09193 16.5482 8.05638 16.4638 8.05584 16.3756L8.04542 14.6274C8.04489 14.5392 8.07943 14.4544 8.14143 14.3916C8.20343 14.3289 8.28781 14.2933 8.37602 14.2928Z" fill="#3A556A"/>
<path id="Vector_4" d="M21.113 1.45379C21.0605 1.33939 20.9768 1.24209 20.8715 1.17307C20.7662 1.10404 20.6436 1.06608 20.5178 1.06352L13.4975 0.919484H13.4754L6.45712 1.14729C6.33137 1.15141 6.20931 1.19085 6.10492 1.2611C6.00053 1.33135 5.91804 1.42958 5.86688 1.54454L3.85303 6.07432L13.5051 6.01669H13.5272L23.1807 5.95906L21.113 1.45379Z" fill="#2F4859"/>
<path id="Vector_5" d="M23.3979 13.9361C22.7212 13.94 22.1758 14.4918 22.1797 15.1685C22.1836 15.8452 22.7353 16.3906 23.4121 16.3867C24.0888 16.3828 24.6342 15.831 24.6303 15.1543V15.1537C24.626 14.4773 24.0744 13.9322 23.3979 13.9361ZM3.72253 14.0537C3.04581 14.0577 2.50053 14.6097 2.50466 15.2864C2.50873 15.9631 3.06064 16.5084 3.73737 16.5042C4.41409 16.5002 4.9593 15.9483 4.95524 15.2716C4.95111 14.5949 4.39926 14.0496 3.72253 14.0537Z" fill="#EBF0F3"/>
<path id="Vector_6" d="M8.9126 11.185H17.8489V12.3005H8.9126V11.185Z" fill="#3A556A"/>
<path id="Vector_7" d="M25.1174 9.43112C25.1098 9.36392 25.0879 9.29911 25.0533 9.24101C25.0186 9.18292 24.972 9.13289 24.9165 9.09425C24.861 9.05561 24.7979 9.02925 24.7314 9.01694C24.6649 9.00462 24.5965 9.00664 24.5308 9.02284L20.4442 10.022C20.3834 10.037 20.3262 10.0637 20.2758 10.1008C20.2254 10.1379 20.1828 10.1845 20.1504 10.2381L19.3409 11.578C19.2973 11.65 19.2738 11.7323 19.2725 11.8165C19.2713 11.9007 19.2924 11.9836 19.3338 12.057C19.3751 12.1303 19.4352 12.1913 19.5079 12.2337C19.5806 12.2761 19.6633 12.2985 19.7474 12.2985H23.7403C23.8336 12.2992 23.9252 12.2725 24.0036 12.2218C24.9455 11.598 25.2403 10.6263 25.1174 9.43112Z" fill="#E1E6E9"/>
<path id="Vector_8" d="M23.1805 9.81028C22.6864 9.83046 22.3022 10.2474 22.3225 10.7415C22.3427 11.2356 22.7596 11.6198 23.2537 11.5995C23.7477 11.5793 24.1319 11.1625 24.1118 10.6684C24.0914 10.1744 23.6746 9.79023 23.1805 9.81028ZM21.2835 10.6648C20.9078 10.6799 20.6153 10.9968 20.6304 11.3726C20.6455 11.7484 20.9625 12.0408 21.3382 12.0257C21.714 12.0106 22.0064 11.6936 21.9913 11.3179V11.3173C21.976 10.9417 21.6592 10.6497 21.2835 10.6648Z" fill="#BDBEC1"/>
<path id="Vector_9" d="M1.88264 9.43112C1.89024 9.36392 1.91209 9.29911 1.94673 9.24101C1.98137 9.18292 2.028 9.13289 2.08351 9.09425C2.13902 9.05561 2.20213 9.02925 2.26863 9.01694C2.33513 9.00462 2.4035 9.00664 2.46916 9.02284L6.55578 10.022C6.61655 10.037 6.67377 10.0637 6.72418 10.1008C6.77459 10.1379 6.81719 10.1845 6.84955 10.2381L7.65914 11.578C7.70265 11.65 7.72624 11.7323 7.72748 11.8165C7.72873 11.9007 7.70758 11.9836 7.66622 12.057C7.62485 12.1303 7.56475 12.1913 7.49207 12.2337C7.41938 12.2761 7.33672 12.2985 7.25255 12.2985H3.25972C3.16635 12.2992 3.07482 12.2725 2.99643 12.2218C2.05445 11.598 1.75973 10.6263 1.88264 9.43112Z" fill="#E1E6E9"/>
<path id="Vector_10" d="M3.81949 9.81028C4.31357 9.83046 4.69775 10.2474 4.6775 10.7415C4.65732 11.2356 4.24037 11.6198 3.74628 11.5995C3.25227 11.5793 2.86809 11.1625 2.88821 10.6684C2.90859 10.1744 3.32541 9.79023 3.81949 9.81028ZM5.71646 10.6648C6.09223 10.6799 6.38465 10.9968 6.36955 11.3726C6.35444 11.7484 6.03752 12.0408 5.66174 12.0257C5.28596 12.0106 4.99355 11.6936 5.00865 11.3179V11.3173C5.02402 10.9417 5.34081 10.6497 5.71646 10.6648Z" fill="#BDBEC1"/>
</g>
</svg>
