<svg xmlns="http://www.w3.org/2000/svg" width="24" height="18" viewBox="0 0 24 18" fill="none">
  <path d="M23.9952 9.91569C23.9665 9.25102 23.3162 8.72023 22.0586 8.33769C21.0831 8.046 19.8446 7.86907 18.5057 7.84038V2.73816C18.5009 2.65209 18.477 2.5708 18.4339 2.49907C18.3001 1.92047 17.6545 1.45185 16.5117 1.10756C15.4357 0.782396 14.0299 0.605469 12.5523 0.605469C11.0795 0.605469 9.68798 0.782396 8.6312 1.10756C7.76569 1.37534 6.72803 1.87265 6.72803 2.7286C6.72803 2.7812 6.73281 2.8338 6.74238 2.8864L6.79498 5.06692C3.68679 4.47397 0.688583 6.51581 0.100418 9.61922C0.0334728 9.97307 0 10.3269 0 10.6856C0 13.8416 2.56784 16.4094 5.72385 16.4094C7.03885 16.4094 8.31082 15.9599 9.32935 15.1279C10.2235 15.3383 11.2756 15.453 12.3897 15.4626C12.6336 16.7872 15.5027 17.3945 18.1757 17.3945C19.6485 17.3945 21.04 17.2128 22.0968 16.8828C22.9623 16.615 24 16.1129 24 15.257V10.0065C24 9.97785 24 9.94438 23.9952 9.91569ZM17.5063 5.38252C17.5063 5.44468 17.2767 5.77463 16.2391 6.09023C15.2684 6.38192 13.9247 6.55406 12.5571 6.55406C11.376 6.55406 10.2188 6.42974 9.30066 6.19543C9.28631 6.19065 9.27675 6.19065 9.2624 6.18586C8.80813 5.82723 8.30604 5.54032 7.76569 5.33948L7.73222 3.991C8.06216 4.15837 8.40645 4.29226 8.76509 4.3879C9.80275 4.68915 11.1464 4.85173 12.5571 4.85173C14.0299 4.85173 15.4405 4.67481 16.5164 4.34964C16.8751 4.24444 17.2241 4.10577 17.5541 3.93362V5.18646C17.5015 5.25341 17.5063 5.31557 17.5063 5.38252ZM8.91811 2.03045C9.88404 1.73398 11.1751 1.56662 12.5523 1.56662C13.9199 1.56662 15.2636 1.73398 16.2343 2.03045C17.272 2.34605 17.5015 2.67122 17.5015 2.73338C17.5015 2.80033 17.2672 3.13027 16.2295 3.44109C15.2588 3.73278 13.9199 3.90015 12.5523 3.90015C11.2325 3.90015 9.97968 3.74713 9.02809 3.46978C8 3.17331 7.71309 2.84815 7.68918 2.74295C7.68918 2.73338 7.6844 2.73338 7.6844 2.73338C7.68918 2.64253 7.90914 2.33649 8.91811 2.03045ZM8.93246 14.2146C6.98625 15.9838 3.96892 15.8452 2.19964 13.899C0.430365 11.9528 0.569037 8.93542 2.51524 7.16614C3.39032 6.36757 4.53796 5.92764 5.72385 5.92764C6.20203 5.92764 6.67543 5.99937 7.13449 6.13805C8.79378 6.65448 10.0418 8.03165 10.3957 9.7292C10.4579 10.0448 10.4913 10.37 10.4913 10.6903C10.4961 12.034 9.92708 13.3108 8.93246 14.2146ZM10.147 14.3198C10.5344 13.8464 10.8452 13.3156 11.0652 12.7465C11.4716 12.78 11.8924 12.8039 12.3323 12.8087V12.8948L12.361 14.5158C11.6198 14.5062 10.8787 14.4393 10.147 14.3198ZM11.4238 10.1213C11.7011 10.1404 11.9928 10.15 12.2893 10.1548L12.318 11.8476C11.9833 11.8428 11.6533 11.8284 11.3377 11.8045C11.4094 11.4363 11.4477 11.0585 11.4477 10.6856C11.4477 10.4991 11.4381 10.3126 11.4238 10.1213ZM12.6001 9.2032H12.5523C12.0932 9.2032 11.6485 9.18407 11.2373 9.15538C11.0556 8.51461 10.7687 7.9121 10.3813 7.37654C11.0986 7.46739 11.8207 7.51521 12.5475 7.51521C14.0251 7.51521 15.4357 7.33828 16.5117 7.01312C16.8703 6.90792 17.2146 6.76925 17.5445 6.60188V7.85472C15.4931 7.9121 13.3843 8.34247 12.6001 9.2032ZM13.2313 9.96351C13.2313 9.95873 13.2313 9.95395 13.2361 9.94438C13.2791 9.81527 13.6186 9.49967 14.6085 9.22233C15.5362 8.95933 16.746 8.81587 18.0179 8.81587H18.0992C19.4668 8.81587 20.8057 8.97367 21.7812 9.27014C22.7998 9.57618 23.0388 9.89178 23.0436 9.96351V9.96829C23.0388 10.04 22.7998 10.37 21.7382 10.6856C20.7579 10.9773 19.4668 11.1351 18.104 11.1351C16.7842 11.1351 15.5314 10.982 14.5798 10.7095C13.5517 10.413 13.2696 10.0831 13.2409 9.98264L13.2313 9.96351ZM21.8195 15.9743C20.8536 16.2755 19.5577 16.4429 18.1805 16.4429C16.7986 16.4429 15.5075 16.2803 14.5511 15.9886C13.5421 15.6778 13.3317 15.3574 13.3317 15.2857V15.2761L13.3078 13.8894C13.6904 14.0759 14.0873 14.2193 14.4985 14.3245C15.5027 14.5875 16.7794 14.7358 18.0897 14.7358C19.5672 14.7358 20.9683 14.5588 22.0394 14.2337C22.3885 14.1285 22.7232 13.9898 23.0436 13.8272V15.2618H23.0484C23.0484 15.3287 22.8284 15.6587 21.8195 15.9743ZM23.0532 12.4548H23.0484C23.0484 12.5027 23.0197 12.56 23.0197 12.6126C23.0197 12.6796 22.795 13.0048 21.7621 13.3204C20.7818 13.6168 19.4764 13.7794 18.0944 13.7794C15.4453 13.7794 13.6617 13.1817 13.2887 12.7178L13.2839 12.3162L13.2648 11.2163C13.5995 11.3837 13.9486 11.5176 14.3072 11.618C15.3449 11.9193 16.6886 12.0819 18.0992 12.0819C19.5529 12.0819 20.9396 11.9097 22.006 11.5941C22.3694 11.4937 22.7185 11.355 23.0532 11.1829V12.4548Z" fill="#9E9E9E"/>
  <path d="M7.46423 11.3646C7.24427 10.5852 6.53178 10.0496 5.72365 10.0496C5.25503 10.0496 4.87248 9.67183 4.87248 9.20321C4.87726 8.72981 5.25503 8.35204 5.72365 8.35204C6.19227 8.35204 6.57481 8.73459 6.57481 9.20321C6.57481 9.46621 6.79 9.68139 7.053 9.68139C7.316 9.68139 7.53118 9.46621 7.53118 9.20321C7.53118 8.39508 6.99561 7.68259 6.21618 7.46262V7.24744C6.21618 6.98444 6.00099 6.76926 5.73799 6.76926C5.47499 6.76926 5.25981 6.98444 5.25981 7.24744V7.45306C4.29866 7.71128 3.72484 8.70111 3.98306 9.66226C4.19346 10.4513 4.90595 11.0012 5.72365 11.0012C6.19227 11.0012 6.57481 11.3789 6.57481 11.8476C6.57481 12.3162 6.19705 12.6987 5.72843 12.6987C5.25981 12.6987 4.87726 12.321 4.87726 11.8523C4.87726 11.5893 4.66208 11.3742 4.39908 11.3742C4.13608 11.3742 3.9209 11.5893 3.9209 11.8523C3.92568 12.67 4.47081 13.3825 5.25981 13.5977V14.0137C5.25981 14.2767 5.47499 14.4919 5.73799 14.4919C6.00099 14.4919 6.21618 14.2767 6.21618 14.0137V13.5929C7.17732 13.3204 7.7368 12.3257 7.46423 11.3646Z" fill="#9E9E9E"/>
</svg>