<svg xmlns="http://www.w3.org/2000/svg" width="34" height="34" viewBox="0 0 34 34" fill="none">
  <path fill-rule="evenodd" clip-rule="evenodd" d="M0 13.5433C0 11.1268 5.1498 9.16668 11.5033 9.16668C17.8568 9.16668 23.0066 11.1268 23.0066 13.5433V29.6227C23.0066 32.0414 17.8568 33.9994 11.5033 33.9994C5.1498 33.9994 0 32.0414 0 29.6227V13.5433Z" fill="#FE9923"/>
  <path fill-rule="evenodd" clip-rule="evenodd" d="M11.5033 17.9179C17.8394 17.9179 23.0066 15.9537 23.0066 13.5433C23.0066 11.1329 17.8394 9.16668 11.5033 9.16668C5.16717 9.16668 0 11.133 0 13.5433C0 15.9536 5.16717 17.9179 11.5033 17.9179Z" fill="#FECD3D"/>
  <path fill-rule="evenodd" clip-rule="evenodd" d="M11.5033 17.918C5.1498 17.918 0 15.96 0 13.5434V17.5627C0 19.9793 5.1498 21.9394 11.5033 21.9394C17.8568 21.9394 23.0066 19.9793 23.0066 17.5627V13.5517C22.9931 15.9641 17.849 17.918 11.5033 17.918Z" fill="#E59C1C"/>
  <path fill-rule="evenodd" clip-rule="evenodd" d="M11.5033 21.9394C5.1498 21.9394 0 19.9793 0 17.5627V21.5842C0 24.0007 5.1498 25.9587 11.5033 25.9587C17.8568 25.9587 23.0066 24.0007 23.0066 21.5842V17.5627C23.0066 19.9793 17.8568 21.9394 11.5033 21.9394Z" fill="#F9B938"/>
  <path fill-rule="evenodd" clip-rule="evenodd" d="M11.5033 25.9587C5.1498 25.9587 0 24.0007 0 21.5841V25.6035C0 28.02 5.1498 29.9801 11.5033 29.9801C17.8568 29.9801 23.0066 28.02 23.0066 25.6035V21.5841C23.0066 24.0007 17.8568 25.9587 11.5033 25.9587Z" fill="#E59C1C"/>
  <path fill-rule="evenodd" clip-rule="evenodd" d="M23.0066 25.6034C23.0066 28.0199 17.8568 29.98 11.5033 29.98C5.1498 29.9801 0 28.02 0 25.6034V29.6227C0 32.0414 5.1498 33.9994 11.5033 33.9994C17.8568 33.9994 23.0066 32.0414 23.0066 29.6227V25.6034Z" fill="#F9B938"/>
  <path d="M6.75146 19.5352V21.549C6.36326 21.4825 5.97672 21.4054 5.59222 21.3177V19.5352H6.75146ZM2.03906 20.0494C2.38744 20.2415 2.77447 20.4233 3.19637 20.5906V18.4549H2.03906V20.0494ZM9.14545 21.8464C9.5267 21.8774 9.9118 21.9001 10.3047 21.9146V20.0061H9.14545V21.8464ZM12.7005 21.9146C13.0867 21.9005 13.4726 21.8778 13.8579 21.8464V20.0061H12.7005V21.9146ZM16.2537 21.5489C16.6419 21.4823 17.0284 21.4051 17.4129 21.3176V19.5351H16.2537V21.5489ZM19.8088 20.5906C20.2307 20.4233 20.6177 20.2415 20.9661 20.0494V18.4549H19.8088V20.5906Z" fill="#D68F13"/>
  <path d="M6.75146 23.5608V25.5746C6.36309 25.5091 5.97653 25.4319 5.59222 25.3432V23.5607H6.75146V23.5608ZM2.03906 24.0771C2.38744 24.2671 2.77447 24.4489 3.19637 24.6162V22.4806H2.03906V24.0771ZM9.14545 25.8741C9.5267 25.903 9.9118 25.9257 10.3047 25.9422V24.0317H9.14545V25.8741ZM12.7005 25.9422C13.0866 25.9261 13.4724 25.9034 13.8579 25.8741V24.0317H12.7005V25.9422ZM16.2537 25.5746C16.6524 25.5064 17.0394 25.43 17.4129 25.3432V23.5607H16.2537V25.5746ZM19.8088 24.6162C20.2307 24.4489 20.6177 24.2671 20.9661 24.0771V22.4805H19.8088V24.6162Z" fill="#E59C1C"/>
  <path d="M6.75146 27.5863V29.6022C6.36342 29.5347 5.9769 29.4576 5.59222 29.3708V27.5863H6.75146ZM2.03906 28.1027C2.38744 28.2948 2.77447 28.4745 3.19637 28.6418V26.5061H2.03906V28.1027ZM9.14545 29.8996C9.5267 29.9285 9.9118 29.9513 10.3047 29.9678V28.0573H9.14545V29.8996ZM12.7005 29.9677C13.0866 29.9516 13.4724 29.9289 13.8579 29.8996V28.0572H12.7005V29.9677ZM16.2537 29.6022C16.6524 29.532 17.0394 29.4555 17.4129 29.3708V27.5863H16.2537V29.6022ZM19.8088 28.6418C20.2307 28.4745 20.6177 28.2948 20.9661 28.1027V26.5061H19.8088V28.6418Z" fill="#D68F13"/>
  <path d="M6.75146 31.587V33.6028C6.36342 33.5353 5.9769 33.4582 5.59222 33.3714V31.5869H6.75146V31.587ZM2.03906 32.1034C2.38744 32.2954 2.77447 32.4752 3.19637 32.6425V30.5068H2.03906V32.1034ZM9.14545 33.9003C9.5267 33.9292 9.9118 33.9519 10.3047 33.9685V32.058H9.14545V33.9003ZM12.7005 33.9685C13.0866 33.9523 13.4724 33.9296 13.8579 33.9003V32.058H12.7005V33.9685ZM16.2537 33.6029C16.6524 33.5326 17.0394 33.4562 17.4129 33.3715V31.587H16.2537V33.6029ZM19.8088 32.6425C20.2307 32.4752 20.6177 32.2954 20.9661 32.1034V30.5068H19.8088V32.6425Z" fill="#E59C1C"/>
  <path fill-rule="evenodd" clip-rule="evenodd" d="M23.1659 0.0746309C26.154 -0.778409 30.3962 5.77934 32.641 14.7227C34.8879 23.6681 34.2861 31.6118 31.298 32.4669C29.6433 32.9398 27.9867 33.4128 26.3301 33.8878C23.3421 34.7409 19.0999 28.1831 16.855 19.2377C14.6082 10.2944 15.21 2.35063 18.1981 1.49561C19.8547 1.02268 21.5113 0.547627 23.1659 0.0746309Z" fill="#FE9923"/>
  <path fill-rule="evenodd" clip-rule="evenodd" d="M32.6405 14.7228C34.8874 23.6681 34.2856 31.6118 31.2975 32.4669C28.3113 33.3199 24.0692 26.7622 21.8224 17.8167C19.5775 8.8734 20.1793 0.929685 23.1654 0.0746573C26.1535 -0.778312 30.3956 5.77944 32.6405 14.7228Z" fill="#FECD3D"/>
  <path fill-rule="evenodd" clip-rule="evenodd" d="M30.1115 15.4456C31.8978 22.5631 32.0565 28.6995 30.4657 29.1539C28.8749 29.6103 26.1364 24.2093 24.3502 17.0938C22.5639 9.97843 22.4052 3.84198 23.996 3.38553C25.5869 2.93114 28.3252 8.33022 30.1115 15.4456Z" fill="#FEA832"/>
  <path d="M24.1763 29.8087L21.5308 30.5668C21.8327 31.0129 22.1384 31.4239 22.4423 31.7895L24.5246 31.1946L24.1763 29.8087ZM19.6535 27.2228C19.4486 26.7894 19.2525 26.3515 19.0652 25.9092L21.5869 25.1883L21.9313 26.5722L19.6535 27.2228ZM17.7588 22.4021C17.6138 21.9497 17.4744 21.4953 17.3408 21.0389L19.7464 20.3511L20.0908 21.7349L17.7588 22.4021ZM16.4313 17.4202C16.3325 16.9472 16.2397 16.4784 16.1565 16.0137L18.4885 15.3465L18.8388 16.7324L16.4313 17.4202ZM15.6436 12.2814C15.5984 11.7983 15.5629 11.3141 15.5371 10.8294L17.8169 10.1767L18.1613 11.5606L15.6436 12.2814ZM15.5972 6.93195C15.6494 6.38255 15.721 5.86617 15.814 5.38493L17.8944 4.79008L18.2447 6.17598L15.5972 6.93195Z" fill="#C85929"/>
</svg>