<svg xmlns="http://www.w3.org/2000/svg" width="33" height="33" viewBox="0 0 33 33" fill="none">
  <path d="M23.7028 5.5H13.6972C12.6905 5.50116 11.7253 5.9016 11.0135 6.61346C10.3016 7.32532 9.90117 8.29048 9.9 9.2972V9.9H9.2972C8.29048 9.90117 7.32532 10.3016 6.61346 11.0135C5.9016 11.7253 5.50116 12.6905 5.5 13.6972V23.7028C5.50116 24.7095 5.9016 25.6747 6.61346 26.3865C7.32532 27.0984 8.29048 27.4988 9.2972 27.5H19.3028C21.2256 27.5 22.803 26.0568 23.0494 24.2H23.7028C24.7095 24.1988 25.6747 23.7984 26.3865 23.0865C27.0984 22.3747 27.4988 21.4095 27.5 20.4028V9.2972C27.4988 8.29048 27.0984 7.32532 26.3865 6.61346C25.6747 5.9016 24.7095 5.50116 23.7028 5.5ZM25.3 20.4028C25.3 21.2828 24.5839 22 23.7028 22H23.1V13.6972C23.0988 12.6905 22.6984 11.7253 21.9865 11.0135C21.2747 10.3016 20.3095 9.90117 19.3028 9.9H12.1V9.2972C12.1 8.4172 12.8161 7.7 13.6972 7.7H23.7028C24.5828 7.7 25.3 8.4161 25.3 9.2972V20.4028Z" fill="white"/>
</svg>