<svg width="30" height="30" viewBox="0 0 30 30" fill="none" xmlns="http://www.w3.org/2000/svg">
<g id="Frame" clip-path="url(#clip0_506_10961)">
<g id="Group">
<path id="Vector" d="M28.0056 15.3886C27.9461 15.2677 27.9151 15.1347 27.9151 15C27.9151 14.8653 27.9461 14.7323 28.0056 14.6114L29.1245 12.3225C29.7475 11.048 29.2539 9.52899 28.0008 8.86413L25.7503 7.67C25.631 7.60722 25.5278 7.51788 25.4486 7.40888C25.3694 7.29988 25.3163 7.17413 25.2935 7.04135L24.8533 4.53185C24.6082 3.13463 23.3158 2.19573 21.9115 2.39442L19.3888 2.75126C19.2555 2.77053 19.1195 2.7589 18.9913 2.71726C18.8632 2.67561 18.7463 2.60507 18.6498 2.51108L16.8187 0.739686C15.7991 -0.246675 14.2019 -0.246734 13.1823 0.739686L11.3512 2.51126C11.2546 2.60523 11.1378 2.67575 11.0096 2.7174C10.8815 2.75904 10.7455 2.77068 10.6121 2.75143L8.08951 2.3946C6.68473 2.19579 5.39275 3.13481 5.14765 4.53203L4.7075 7.04141C4.68462 7.17419 4.63154 7.29994 4.55234 7.40895C4.47315 7.51796 4.36997 7.60731 4.25076 7.67011L2.00019 8.86425C0.747109 9.52905 0.253518 11.0482 0.876483 12.3227L1.99532 14.6116C2.05488 14.7324 2.08585 14.8654 2.08585 15.0001C2.08585 15.1349 2.05488 15.2678 1.99532 15.3887L0.876425 17.6776C0.253459 18.952 0.74705 20.4711 2.00013 21.1359L4.2507 22.3301C4.36992 22.3928 4.47312 22.4822 4.55232 22.5912C4.63153 22.7002 4.68462 22.8259 4.7075 22.9587L5.14765 25.4682C5.37077 26.7402 6.46143 27.6322 7.71492 27.6321C7.83838 27.6321 7.96365 27.6234 8.08957 27.6056L10.6122 27.2487C10.7455 27.2295 10.8815 27.2411 11.0097 27.2827C11.1378 27.3244 11.2547 27.3949 11.3512 27.4889L13.1823 29.2603C13.6922 29.7536 14.3462 30.0001 15.0005 30.0001C15.6546 30 16.309 29.7534 16.8186 29.2603L18.6498 27.4889C18.8474 27.2978 19.1167 27.2105 19.3888 27.2487L21.9115 27.6056C23.3164 27.8043 24.6082 26.8654 24.8533 25.4682L25.2935 22.9588C25.3164 22.826 25.3695 22.7002 25.4487 22.5912C25.5279 22.4822 25.6311 22.3929 25.7503 22.3301L28.0008 21.1359C29.2539 20.4711 29.7475 18.952 29.1245 17.6775L28.0056 15.3886ZM11.5399 7.21379C13.289 7.21379 14.7121 8.63685 14.7121 10.386C14.7121 12.1351 13.289 13.5582 11.5399 13.5582C9.79077 13.5582 8.36771 12.1351 8.36771 10.386C8.36771 8.63685 9.79077 7.21379 11.5399 7.21379ZM9.90256 21.3213C9.73364 21.4902 9.51221 21.5747 9.29085 21.5747C9.06948 21.5747 8.848 21.4903 8.67913 21.3213C8.34128 20.9835 8.34128 20.4357 8.67913 20.0978L20.0983 8.67862C20.4361 8.34077 20.984 8.34077 21.3218 8.67862C21.6597 9.01647 21.6597 9.56426 21.3218 9.90211L9.90256 21.3213ZM18.461 22.7863C16.7118 22.7863 15.2888 21.3632 15.2888 19.6141C15.2888 17.865 16.7118 16.4419 18.461 16.4419C20.2101 16.4419 21.6331 17.865 21.6331 19.6141C21.6331 21.3632 20.2101 22.7863 18.461 22.7863Z" fill="#212121"/>
<path id="Vector_2" d="M18.4606 18.1722C17.6655 18.1722 17.0187 18.819 17.0187 19.6141C17.0187 20.4091 17.6655 21.056 18.4606 21.056C19.2556 21.056 19.9024 20.4091 19.9024 19.6141C19.9024 18.819 19.2556 18.1722 18.4606 18.1722ZM11.5395 8.94405C10.7445 8.94405 10.0977 9.59087 10.0977 10.3859C10.0977 11.181 10.7445 11.8278 11.5395 11.8278C12.3346 11.8278 12.9814 11.181 12.9814 10.3859C12.9814 9.59093 12.3346 8.94405 11.5395 8.94405Z" fill="#212121"/>
</g>
</g>
<defs>
<clipPath id="clip0_506_10961">
<rect width="30" height="30" fill="white"/>
</clipPath>
</defs>
</svg>
