<svg xmlns="http://www.w3.org/2000/svg" width="20" height="17" viewBox="0 0 20 17" fill="none">
  <path fill-rule="evenodd" clip-rule="evenodd" d="M0 1.41667C0 1.04094 0.15051 0.680609 0.418419 0.414932C0.686328 0.149256 1.04969 0 1.42857 0H18.5714C18.9503 0 19.3137 0.149256 19.5816 0.414932C19.8495 0.680609 20 1.04094 20 1.41667C20 1.79239 19.8495 2.15272 19.5816 2.4184C19.3137 2.68408 18.9503 2.83333 18.5714 2.83333H1.42857C1.04969 2.83333 0.686328 2.68408 0.418419 2.4184C0.15051 2.15272 0 1.79239 0 1.41667ZM0 8.5C0 8.12428 0.15051 7.76394 0.418419 7.49827C0.686328 7.23259 1.04969 7.08333 1.42857 7.08333H10C10.3789 7.08333 10.7422 7.23259 11.0102 7.49827C11.2781 7.76394 11.4286 8.12428 11.4286 8.5C11.4286 8.87572 11.2781 9.23606 11.0102 9.50173C10.7422 9.76741 10.3789 9.91667 10 9.91667H1.42857C1.04969 9.91667 0.686328 9.76741 0.418419 9.50173C0.15051 9.23606 0 8.87572 0 8.5ZM0 15.5833C0 15.2076 0.15051 14.8473 0.418419 14.5816C0.686328 14.3159 1.04969 14.1667 1.42857 14.1667H18.5714C18.9503 14.1667 19.3137 14.3159 19.5816 14.5816C19.8495 14.8473 20 15.2076 20 15.5833C20 15.9591 19.8495 16.3194 19.5816 16.5851C19.3137 16.8507 18.9503 17 18.5714 17H1.42857C1.04969 17 0.686328 16.8507 0.418419 16.5851C0.15051 16.3194 0 15.9591 0 15.5833Z" fill="white"/>
</svg>