<svg xmlns="http://www.w3.org/2000/svg" width="19" height="18" viewBox="0 0 19 18" fill="none">
  <g clip-path="url(#clip0_320_121019)">
    <path d="M15.4251 17.0487C15.5827 17.0486 15.7342 17.1098 15.8476 17.2193C16.5881 17.9344 17.6683 18.1725 18.6286 17.8745C18.0106 16.587 17.925 15.112 18.4039 13.7463C18.9982 12.047 19.1472 10.3439 18.4708 8.63577C17.8765 7.13522 16.7297 5.88854 15.2783 5.17763C15.3679 5.65616 15.4129 6.14197 15.4126 6.62881C15.4127 8.70928 14.6127 10.666 13.1601 12.1386C11.7073 13.6114 9.75996 14.4396 7.67673 14.4705C7.29118 14.4765 6.90571 14.4541 6.52344 14.4036C7.66835 16.4105 9.82764 17.7175 12.2004 17.7527C13.2384 17.7688 14.2351 17.5513 15.1632 17.1081C15.245 17.069 15.3345 17.0487 15.4251 17.0487Z" fill="#9E9E9E"/>
    <path d="M7.69361 0.00146752C3.998 -0.0719137 0.925923 2.91778 0.917012 6.61259C0.914829 7.51531 1.09104 8.39054 1.44079 9.21408C1.44587 9.22607 1.4506 9.23818 1.45487 9.25048C1.93379 10.6162 1.8482 12.0912 1.23014 13.3787C2.19051 13.6766 3.2706 13.4386 4.01118 12.7235C4.10033 12.6374 4.21364 12.5806 4.33595 12.5608C4.45827 12.5409 4.58373 12.5589 4.69554 12.6123C5.62357 13.0555 6.62034 13.2737 7.65828 13.257C11.325 13.2025 14.1972 10.2911 14.1971 6.6289C14.1972 3.04659 11.2797 0.0735566 7.69361 0.00146752ZM4.0152 7.6189C3.48424 7.6189 3.0538 7.18917 3.0538 6.65911C3.0538 6.12904 3.48424 5.69931 4.0152 5.69931C4.54615 5.69931 4.97659 6.12904 4.97659 6.65911C4.97655 7.18917 4.54615 7.6189 4.0152 7.6189ZM7.5571 7.6189C7.02614 7.6189 6.5957 7.18917 6.5957 6.65911C6.5957 6.12904 7.02614 5.69931 7.5571 5.69931C8.08805 5.69931 8.51849 6.12904 8.51849 6.65911C8.51849 7.18917 8.08805 7.6189 7.5571 7.6189ZM11.099 7.6189C10.5681 7.6189 10.1376 7.18917 10.1376 6.65911C10.1376 6.12904 10.5681 5.69931 11.099 5.69931C11.63 5.69931 12.0604 6.12904 12.0604 6.65911C12.0604 7.18917 11.63 7.6189 11.099 7.6189Z" fill="#9E9E9E"/>
  </g>
  <defs>
    <clipPath id="clip0_320_121019">
      <rect width="18" height="18" fill="white" transform="translate(0.916992)"/>
    </clipPath>
  </defs>
</svg>