<svg width="37" height="21" viewBox="0 0 37 21" fill="none" xmlns="http://www.w3.org/2000/svg">
<g id="Group 28">
<g id="Group">
<path id="Vector" d="M23.2244 14.9187H33.3607V3.73386H23.2244" fill="#E54E5C"/>
<path id="Vector_2" d="M31.5431 9.40175V5.83097H27.2788V9.40175" fill="#CDEFF7"/>
<path id="Vector_3" d="M27.5793 6.13136H31.2427V9.40174H31.8435V5.53058H26.9785V9.40174H27.5793V6.13136Z" fill="#BACBD8"/>
<path id="Vector_4" d="M20.203 20.4177H6.59131V11.8848L17.2056 5.03291L17.8665 4.60637L20.203 20.4177Z" fill="#FD5D65"/>
<path id="Vector_5" d="M25.3499 20.4179H36.231V9.23313H25.3499" fill="#D3DFEA"/>
<path id="Vector_6" d="M20.2029 20.4177H17.2056V5.03291L17.8664 4.60637L20.2029 20.4177Z" fill="#E54E5C"/>
<path id="Vector_7" d="M17.8665 0H26.0942V20.4182H17.8665V0Z" fill="#BACBD8"/>
<path id="Vector_8" d="M25.6836 9.23313H26.0946V20.4175H25.6836V9.23313Z" fill="#ADBFC9"/>
<path id="Vector_9" d="M19.3847 1.74771H24.5771V8.19371H19.3847V1.74771ZM19.3847 10.5128H24.5771V17.4068H19.3847V10.5128ZM16.1683 7.73574L8.30273 12.8133V15.3792H16.1683V7.73574Z" fill="#CDEFF7"/>
<path id="Vector_10" d="M27.5278 20.4179V14.1209H34.798V20.4179" fill="#FD5D65"/>
<path id="Vector_11" d="M27.5276 10.9053H34.7981V12.5829H27.5276V10.9053Z" fill="#CDEFF7"/>
<path id="Vector_12" d="M19.0837 8.49403H24.8772V1.44719H19.0837V8.49403ZM24.2764 7.89325H22.281V2.04803H24.2765V7.89325H24.2764ZM19.6846 2.04803H21.6801V7.89331H19.6846V2.04803ZM19.0837 17.7068H24.8772V10.2123H19.0837V17.7068ZM24.2764 17.106H22.281V10.8131H24.2765V17.106H24.2764ZM19.6846 10.8131H21.6801V17.106H19.6846V10.8131Z" fill="#FD5D65"/>
<path id="Vector_13" d="M8.00244 15.6796H16.4689V7.18427L8.00244 12.6497V15.6796ZM15.868 15.0788H12.536V10.4382L15.868 8.28731V15.0788ZM8.60322 12.9769L11.9353 10.826V15.0787H8.60322V12.9769ZM27.2277 10.6048V12.8834H35.0987V10.6048H27.2277ZM34.4979 12.2825H27.8285V11.2056H34.4979V12.2825ZM27.2277 20.4179H27.8285V14.4213H34.4979V20.4179H35.0986V13.8205H27.2277V20.4179Z" fill="#BACBD8"/>
</g>
<g id="Group_2">
<g id="13-car">
<path id="Vector_14" d="M26.1265 12.3704L20.9718 11.43L16.5835 7.78886C16.1485 7.4316 15.6033 7.23609 15.0404 7.23559H8.57526C8.21093 7.23473 7.85112 7.31626 7.52275 7.47408C7.19438 7.63191 6.90594 7.86195 6.67902 8.14698L3.87603 11.43H1.9868C1.46005 11.4305 0.955038 11.64 0.582566 12.0125C0.210095 12.385 0.000584308 12.89 0 13.4168V15.8451C0.000715774 16.4889 0.256785 17.1061 0.712027 17.5614C1.16727 18.0166 1.78451 18.2727 2.42831 18.2734H25.8284C26.3552 18.2728 26.8602 18.0633 27.2327 17.6908C27.6051 17.3183 27.8147 16.8133 27.8152 16.2866V14.3347C27.8176 13.8587 27.6481 13.3979 27.3378 13.037C27.0275 12.6761 26.5974 12.4394 26.1265 12.3704Z" fill="#398DFF"/>
<path id="Vector_15" d="M22.2963 20.481C23.8813 20.481 25.1662 19.1962 25.1662 17.6112C25.1662 16.0263 23.8813 14.7414 22.2963 14.7414C20.7114 14.7414 19.4265 16.0263 19.4265 17.6112C19.4265 19.1962 20.7114 20.481 22.2963 20.481Z" fill="url(#paint0_linear_243_48520)"/>
<path id="Vector_16" d="M6.40181 20.481C7.98677 20.481 9.27164 19.1962 9.27164 17.6112C9.27164 16.0263 7.98677 14.7414 6.40181 14.7414C4.81685 14.7414 3.53198 16.0263 3.53198 17.6112C3.53198 19.1962 4.81685 20.481 6.40181 20.481Z" fill="url(#paint1_linear_243_48520)"/>
<path id="Vector_17" d="M13.0245 13.8584H12.1415C11.9659 13.8584 11.7974 13.7886 11.6732 13.6644C11.549 13.5402 11.4792 13.3718 11.4792 13.1961C11.4792 13.0205 11.549 12.852 11.6732 12.7278C11.7974 12.6036 11.9659 12.5338 12.1415 12.5338H13.0245C13.2002 12.5338 13.3686 12.6036 13.4928 12.7278C13.617 12.852 13.6868 13.0205 13.6868 13.1961C13.6868 13.3718 13.617 13.5402 13.4928 13.6644C13.3686 13.7886 13.2002 13.8584 13.0245 13.8584Z" fill="#B8B8C7"/>
<path id="Vector_18" d="M6.40193 18.9358C7.13345 18.9358 7.72646 18.3427 7.72646 17.6112C7.72646 16.8797 7.13345 16.2867 6.40193 16.2867C5.67041 16.2867 5.07739 16.8797 5.07739 17.6112C5.07739 18.3427 5.67041 18.9358 6.40193 18.9358Z" fill="url(#paint2_linear_243_48520)"/>
<path id="Vector_19" d="M22.2965 18.9358C23.028 18.9358 23.621 18.3427 23.621 17.6112C23.621 16.8797 23.028 16.2867 22.2965 16.2867C21.5649 16.2867 20.9719 16.8797 20.9719 17.6112C20.9719 18.3427 21.5649 18.9358 22.2965 18.9358Z" fill="url(#paint3_linear_243_48520)"/>
<path id="Vector_20" d="M9.71345 10.7678V9.05693C9.71345 8.88128 9.64367 8.71283 9.51947 8.58863C9.39527 8.46444 9.22682 8.39466 9.05118 8.39466H6.46784L3.87622 11.4301H9.05118C9.22682 11.4301 9.39527 11.3603 9.51947 11.2361C9.64367 11.1119 9.71345 10.9434 9.71345 10.7678Z" fill="url(#paint4_linear_243_48520)"/>
<path id="Vector_21" d="M11.9757 11.4262L20.9715 11.4301L17.3132 8.39466H11.9757C11.8001 8.39466 11.6316 8.46444 11.5075 8.58863C11.3833 8.71283 11.3135 8.88128 11.3135 9.05693V10.7639C11.3135 10.9396 11.3833 11.108 11.5075 11.2322C11.6316 11.3564 11.8001 11.4262 11.9757 11.4262Z" fill="url(#paint5_linear_243_48520)"/>
</g>
</g>
</g>
<defs>
<linearGradient id="paint0_linear_243_48520" x1="20.268" y1="19.6395" x2="24.3246" y2="15.5829" gradientUnits="userSpaceOnUse">
<stop offset="0.011" stop-color="#606082"/>
<stop offset="1" stop-color="#83839E"/>
</linearGradient>
<linearGradient id="paint1_linear_243_48520" x1="4.3735" y1="19.6395" x2="8.43011" y2="15.5829" gradientUnits="userSpaceOnUse">
<stop offset="0.011" stop-color="#606082"/>
<stop offset="1" stop-color="#83839E"/>
</linearGradient>
<linearGradient id="paint2_linear_243_48520" x1="5.46532" y1="18.5478" x2="7.33854" y2="16.6746" gradientUnits="userSpaceOnUse">
<stop offset="0.011" stop-color="#DCDCE3"/>
<stop offset="1" stop-color="#EDEDF1"/>
</linearGradient>
<linearGradient id="paint3_linear_243_48520" x1="21.3598" y1="18.5478" x2="23.2331" y2="16.6746" gradientUnits="userSpaceOnUse">
<stop offset="0.011" stop-color="#DCDCE3"/>
<stop offset="1" stop-color="#EDEDF1"/>
</linearGradient>
<linearGradient id="paint4_linear_243_48520" x1="20.2682" y1="19.6395" x2="24.3248" y2="15.5829" gradientUnits="userSpaceOnUse">
<stop offset="0.011" stop-color="#606082"/>
<stop offset="1" stop-color="#83839E"/>
</linearGradient>
<linearGradient id="paint5_linear_243_48520" x1="20.2678" y1="19.6395" x2="24.3244" y2="15.5829" gradientUnits="userSpaceOnUse">
<stop offset="0.011" stop-color="#606082"/>
<stop offset="1" stop-color="#83839E"/>
</linearGradient>
</defs>
</svg>
