<svg xmlns="http://www.w3.org/2000/svg" width="21" height="20" viewBox="0 0 21 20" fill="none">
  <g clip-path="url(#clip0_320_120988)">
    <path d="M14.975 12.5C15.0833 11.6667 15.0833 10.8333 15.0833 10C15.0833 9.16666 15.0417 8.33333 14.975 7.5H19.725C20.2028 9.13242 20.2028 10.8676 19.725 12.5H14.975ZM13.1083 5.83333C12.5833 2.57499 11.5417 0.833328 10.9167 0.833328C10.2917 0.833328 9.25 2.57499 8.725 5.83333H13.1083ZM8.725 14.1667C9.24167 17.425 10.2917 19.1667 10.9167 19.1667C11.5417 19.1667 12.5833 17.425 13.1083 14.1667H8.725ZM13.3083 7.5H8.525C8.38085 9.16354 8.38085 10.8364 8.525 12.5H13.3083C13.375 11.725 13.4167 10.9 13.4167 10C13.4167 9.1 13.4167 8.275 13.3083 7.5ZM6.75 10C6.75 9.16666 6.75 8.33333 6.85834 7.5H2.10834C1.63055 9.13242 1.63055 10.8676 2.10834 12.5H6.85834C6.79167 11.6667 6.75 10.8333 6.75 10ZM7.05 14.1667H2.75834C3.33302 15.2859 4.13196 16.2749 5.10543 17.0721C6.07889 17.8692 7.20603 18.4574 8.41667 18.8C7.7185 17.3377 7.25719 15.7738 7.05 14.1667ZM14.7833 14.1667C14.5761 15.7738 14.1148 17.3377 13.4167 18.8C14.6273 18.4574 15.7545 17.8692 16.7279 17.0721C17.7014 16.2749 18.5003 15.2859 19.075 14.1667H14.7833ZM14.7833 5.83333H19.075C18.5003 4.71405 17.7014 3.72506 16.7279 2.92794C15.7545 2.13082 14.6273 1.54263 13.4167 1.19999C14.1148 2.66227 14.5761 4.22623 14.7833 5.83333ZM7.05 5.83333C7.25719 4.22623 7.7185 2.66227 8.41667 1.19999C7.20603 1.54263 6.07889 2.13082 5.10543 2.92794C4.13196 3.72506 3.33302 4.71405 2.75834 5.83333H7.05Z" fill="#9E9E9E"/>
  </g>
  <defs>
    <clipPath id="clip0_320_120988">
      <rect width="20" height="20" fill="white" transform="translate(0.916992)"/>
    </clipPath>
  </defs>
</svg>