<svg xmlns="http://www.w3.org/2000/svg" width="17" height="22" viewBox="0 0 17 22" fill="none">
  <path d="M8.38097 0C3.76105 0 0 3.7608 0 8.38097C0 15.0754 7.38577 21.4762 7.70009 21.7483C7.89912 21.9161 8.14004 22 8.38097 22C8.62189 22 8.86282 21.9161 9.06181 21.7483C9.37612 21.4762 16.7619 15.0754 16.7619 8.38097C16.7619 3.7608 13.0011 0 8.38097 0ZM8.38097 12.5714C6.06577 12.5714 4.19048 10.6961 4.19048 8.38093C4.19048 6.06573 6.06577 4.19048 8.38097 4.19048C10.6962 4.19048 12.5715 6.06577 12.5715 8.38097C12.5715 10.6962 10.6962 12.5714 8.38097 12.5714Z" fill="white"/>
  <path d="M8.38089 10.4762C9.53806 10.4762 10.4761 9.53815 10.4761 8.38098C10.4761 7.22381 9.53806 6.28574 8.38089 6.28574C7.22372 6.28574 6.28564 7.22381 6.28564 8.38098C6.28564 9.53815 7.22372 10.4762 8.38089 10.4762Z" fill="white"/>
</svg>