<svg xmlns="http://www.w3.org/2000/svg" width="19" height="18" viewBox="0 0 19 18" fill="none">
  <path d="M12.1669 9.74989C11.7521 9.74989 11.4169 10.0859 11.4169 10.4998V13.4999C11.4169 13.9131 11.0809 14.2498 10.6669 14.2498H8.41687V2.99996C8.41687 2.35945 8.00889 1.78722 7.39542 1.57421L7.17337 1.49993H10.6669C11.0809 1.49993 11.4169 1.83665 11.4169 2.25001V4.49999C11.4169 4.91388 11.7521 5.24994 12.1669 5.24994C12.5816 5.24994 12.9168 4.91388 12.9168 4.49999V2.25001C12.9168 1.00954 11.9073 3.51559e-05 10.6669 3.51559e-05H2.60448C2.57593 3.51559e-05 2.55202 0.0127967 2.52429 0.0165233C2.48815 0.0134999 2.45369 0 2.41702 0C1.58977 3.51559e-05 0.916992 0.672708 0.916992 1.49996V14.9998C0.916992 15.6403 1.32498 16.2126 1.93845 16.4256L6.45194 17.9301C6.60494 17.9773 6.75709 17.9999 6.91695 17.9999C7.7442 17.9999 8.41684 17.3271 8.41684 16.4998V15.7499H10.6668C11.9073 15.7499 12.9168 14.7404 12.9168 13.4999V10.4998C12.9168 10.0859 12.5816 9.74989 12.1668 9.74989H12.1669Z" fill="#9E9E9E"/>
  <path d="M18.6972 6.96949L15.6972 3.96956C15.5923 3.8646 15.4587 3.7931 15.3132 3.76411C15.1677 3.73512 15.0169 3.74993 14.8798 3.80668C14.6001 3.92302 14.417 4.1967 14.417 4.49978V6.74976H11.4171C11.003 6.74976 10.667 7.08568 10.667 7.49971C10.667 7.91374 11.003 8.24965 11.4171 8.24965H14.417V10.4996C14.417 10.8027 14.6001 11.0764 14.8798 11.1927C15.0169 11.2495 15.1677 11.2643 15.3132 11.2353C15.4587 11.2063 15.5923 11.1349 15.6972 11.03L18.6972 8.02993C18.9904 7.73673 18.9904 7.26269 18.6972 6.96949Z" fill="#9E9E9E"/>
</svg>