<svg xmlns="http://www.w3.org/2000/svg" width="11" height="11" viewBox="0 0 11 11" fill="none">
  <path d="M10.827 4.12604C10.8131 4.0722 10.7887 4.02163 10.7553 3.9772C10.7218 3.93278 10.68 3.89538 10.6321 3.86713C10.5842 3.83888 10.5312 3.82035 10.4762 3.81258C10.4211 3.80481 10.3651 3.80796 10.3112 3.82184C10.2574 3.83573 10.2068 3.86009 10.1624 3.89353C10.118 3.92696 10.0806 3.96882 10.0523 4.01671C10.0241 4.0646 10.0055 4.11758 9.99777 4.17264C9.99 4.22769 9.99315 4.28374 10.007 4.33758C10.2808 5.39744 10.1722 6.51988 9.70029 7.50759C9.2284 8.4953 8.42346 9.28506 7.42694 9.73805C6.43043 10.191 5.30612 10.2783 4.25166 9.98439C3.19721 9.69051 2.28008 9.03435 1.66151 8.13124C1.04294 7.22812 0.762508 6.13587 0.869513 5.04646C0.976518 3.95706 1.46411 2.94025 2.24658 2.17475C3.02905 1.40925 4.05631 0.944071 5.1478 0.860978C6.23929 0.777885 7.32513 1.0822 8.21446 1.72042C8.25961 1.75287 8.3107 1.77611 8.36482 1.78881C8.41894 1.80151 8.47503 1.80343 8.5299 1.79445C8.58476 1.78547 8.63732 1.76578 8.68457 1.73649C8.73182 1.7072 8.77284 1.66889 8.80529 1.62375C8.83774 1.57861 8.86097 1.52752 8.87368 1.4734C8.88638 1.41927 8.8883 1.36318 8.87932 1.30832C8.87034 1.25345 8.85065 1.20089 8.82136 1.15364C8.79207 1.10639 8.75376 1.06537 8.70862 1.03292C7.70629 0.31297 6.49095 -0.0489631 5.25805 0.0053273C4.02515 0.0596177 2.84633 0.526977 1.91116 1.33225C0.975993 2.13752 0.338826 3.2339 0.102123 4.44509C-0.13458 5.65627 0.0429365 6.91187 0.606126 8.00996C1.16932 9.10806 2.08545 9.98484 3.2072 10.4993C4.32895 11.0138 5.59113 11.136 6.79076 10.8464C7.99039 10.5568 9.05776 9.8721 9.82122 8.9025C10.5847 7.9329 10.9999 6.73471 11 5.50061C11.0002 5.03698 10.9421 4.57516 10.827 4.12604Z" fill="#00C247"/>
  <path d="M3.11823 4.6845C3.02775 4.64832 2.92754 4.64449 2.83456 4.67365C2.74157 4.70281 2.6615 4.76318 2.60788 4.84455C2.55427 4.92593 2.53038 5.02332 2.54027 5.12027C2.55016 5.21722 2.59321 5.30778 2.66216 5.37665L4.77754 7.49203C4.85688 7.57135 4.96447 7.6159 5.07665 7.6159C5.18884 7.6159 5.29643 7.57135 5.37577 7.49203L10.0296 2.83819C10.1078 2.76338 10.1544 2.66144 10.1598 2.55333C10.1651 2.44523 10.1288 2.33918 10.0584 2.25702C9.98792 2.17485 9.88865 2.12282 9.78099 2.11162C9.67333 2.10042 9.56547 2.1309 9.47961 2.19681L5.01658 5.44392L3.11823 4.6845Z" fill="#00C247"/>
</svg>