<svg xmlns="http://www.w3.org/2000/svg" width="17" height="16" viewBox="0 0 17 16" fill="none">
<path fill-rule="evenodd" clip-rule="evenodd" d="M0 6.26352C0 4.20979 1.09296e-07 3.18293 0.399744 2.39811C0.751342 1.70808 1.31236 1.14706 2.00239 0.795465C2.7872 0.395721 3.81407 0.395721 5.8678 0.395721H10.6354C12.6891 0.395721 13.716 0.395721 14.5008 0.795465C15.1908 1.14706 15.7518 1.70808 16.1034 2.39811C16.5032 3.18293 16.5032 4.20979 16.5032 6.26352V7.36373C16.5032 9.41746 16.5032 10.4443 16.1034 11.2291C15.7518 11.9192 15.1908 12.4802 14.5008 12.8318C13.716 13.2315 12.6891 13.2315 10.6354 13.2315H4.04695C3.80381 13.2316 3.57064 13.3282 3.39874 13.5002L1.56505 15.3339C0.98744 15.9115 0 15.5026 0 14.6856V8.64731V6.26352ZM5.50106 4.0631C5.2579 4.0631 5.0247 4.15969 4.85276 4.33163C4.68081 4.50357 4.58422 4.73678 4.58422 4.97994C4.58422 5.2231 4.68081 5.4563 4.85276 5.62825C5.0247 5.80019 5.2579 5.89678 5.50106 5.89678H11.0021C11.2453 5.89678 11.4785 5.80019 11.6504 5.62825C11.8224 5.4563 11.919 5.2231 11.919 4.97994C11.919 4.73678 11.8224 4.50357 11.6504 4.33163C11.4785 4.15969 11.2453 4.0631 11.0021 4.0631H5.50106ZM5.50106 7.73047C5.2579 7.73047 5.0247 7.82707 4.85276 7.99901C4.68081 8.17095 4.58422 8.40415 4.58422 8.64731C4.58422 8.89048 4.68081 9.12368 4.85276 9.29562C5.0247 9.46756 5.2579 9.56416 5.50106 9.56416H8.25159C8.49475 9.56416 8.72796 9.46756 8.8999 9.29562C9.07184 9.12368 9.16844 8.89048 9.16844 8.64731C9.16844 8.40415 9.07184 8.17095 8.8999 7.99901C8.72796 7.82707 8.49475 7.73047 8.25159 7.73047H5.50106Z" fill="#212121"/>
</svg>