<svg width="30" height="22" viewBox="0 0 30 22" fill="none" xmlns="http://www.w3.org/2000/svg">
<g id="Group">
<path id="Vector" d="M26.1651 21.7398C24.0504 21.7398 22.3301 20.0195 22.3301 17.9048C22.3301 17.814 22.3575 17.7254 22.4087 17.6504C22.4599 17.5754 22.5326 17.5176 22.6171 17.4846L28.4894 15.1916C28.574 15.1586 28.6666 15.1519 28.755 15.1723C28.8435 15.1927 28.9238 15.2393 28.9853 15.3061C29.6396 16.0159 30 16.9389 30 17.9048C30 20.0195 28.2797 21.7398 26.1651 21.7398Z" fill="#8D9C9B"/>
<path id="Vector_2" d="M26.1648 20.0479C24.9831 20.0479 24.0217 19.0865 24.0217 17.9048C24.0217 16.7232 24.9831 15.7618 26.1648 15.7618C27.3465 15.7618 28.3079 16.7232 28.3079 17.9048C28.3079 19.0865 27.3465 20.0479 26.1648 20.0479Z" fill="#D2E2E0"/>
<path id="Vector_3" d="M28.9854 15.3061C28.8665 15.1771 28.6846 15.1308 28.5188 15.1827C28.5108 15.1843 28.5013 15.187 28.4894 15.1916L27.5271 15.5674L22.6171 17.4846C22.5326 17.5176 22.4599 17.5754 22.4087 17.6504C22.3575 17.7254 22.3301 17.814 22.3301 17.9048C22.3298 18.3462 22.4061 18.7843 22.5555 19.1996C22.588 19.2003 22.6204 19.2007 22.6528 19.2007C23.2941 19.2007 24.4776 19.0681 25.1989 18.1797C25.7965 17.4439 26.6277 17.0646 27.7347 17.023C27.6091 18.8363 26.0947 20.2734 24.25 20.2734C23.8139 20.2736 23.3816 20.1916 22.9758 20.0319C23.6643 21.0608 24.8367 21.7398 26.165 21.7398C28.2797 21.7398 30 20.0194 30 17.9048C30 16.9389 29.6396 16.0159 28.9854 15.3061Z" fill="black" fill-opacity="0.0627451"/>
<path id="Vector_4" d="M22.7264 15.6636C22.6234 15.6636 22.5236 15.6284 22.4434 15.5638C22.3633 15.4993 22.3076 15.4093 22.2856 15.3087L20.5372 7.30035C20.5118 7.18368 20.5336 7.06166 20.5979 6.96106C20.6623 6.86045 20.7639 6.78945 20.8805 6.76363L21.8378 6.55158C21.9406 6.52886 22.0481 6.54277 22.1417 6.5909C22.2353 6.63904 22.3091 6.71838 22.3504 6.8152L25.2281 13.5692C25.2686 13.6643 25.2753 13.7704 25.247 13.8698C25.2186 13.9692 25.157 14.0558 25.0725 14.1153L22.9858 15.5816C22.9098 15.635 22.8192 15.6636 22.7264 15.6636Z" fill="#EB5764"/>
<path id="Vector_5" d="M19.6233 5.27218C19.5036 5.27218 19.3889 5.22465 19.3043 5.14004C19.2197 5.05542 19.1721 4.94067 19.1721 4.82101V1.2119C19.1721 1.09224 19.2197 0.977486 19.3043 0.892875C19.3889 0.808263 19.5036 0.760729 19.6233 0.760729C19.743 0.760729 19.8577 0.808263 19.9423 0.892875C20.0269 0.977486 20.0745 1.09224 20.0745 1.2119V4.82101C20.0745 4.94067 20.0269 5.05542 19.9423 5.14004C19.8577 5.22465 19.743 5.27218 19.6233 5.27218Z" fill="#8D9C9B"/>
<path id="Vector_6" d="M17.9319 3.15822C17.3721 3.15822 16.9167 2.70283 16.9167 2.14308V1.01514C16.9167 0.455394 17.3721 0 17.9319 0C17.9469 0 19.0848 0.113204 19.0848 0.113204C19.6328 0.126915 20.0742 0.576859 20.0742 1.128V2.03017C20.0742 2.58131 19.6327 3.03125 19.0848 3.04496C19.0848 3.04496 17.9469 3.15822 17.9319 3.15822Z" fill="#EB5764"/>
<path id="Vector_7" d="M18.3817 18.5796H9.13253C9.08817 18.5796 9.04405 18.5731 9.00163 18.5602L2.86284 16.6989H0.451166C0.38981 16.6989 0.3291 16.6864 0.272747 16.6621C0.216393 16.6379 0.165581 16.6024 0.123417 16.5578C0.0812523 16.5132 0.0486221 16.4605 0.0275212 16.4029C0.00642019 16.3453 -0.00270814 16.284 0.000694291 16.2227C0.110617 14.2391 0.609429 12.8694 1.66852 11.6429C2.99386 10.108 4.83758 9.2792 7.14847 9.2792H14.5639C14.7888 9.2792 14.9793 9.49576 15.0106 9.71842C15.0696 10.1373 14.9717 11.0129 14.1797 11.3285C13.1956 11.7205 13.2106 13.1923 13.2236 13.4834C13.2816 14.7809 14.2516 15.7594 15.48 15.7594H18.3817C19.4798 15.7594 20.2877 14.7056 20.6013 13.6613C21.1347 11.8851 21.1336 9.73975 20.5985 7.92245C20.2288 6.66666 19.2912 5.83357 18.8331 5.83357C18.7135 5.83357 18.5987 5.78604 18.5141 5.70142C18.4295 5.61681 18.382 5.50206 18.382 5.3824V4.59319C18.382 4.47353 18.4295 4.35878 18.5141 4.27416C18.5987 4.18955 18.7135 4.14202 18.8331 4.14202C20.4509 4.14202 22.1402 5.73595 22.7625 7.84956C23.426 10.1031 23.4257 12.6635 22.7619 14.8743C22.0965 17.0906 20.3362 18.5796 18.3817 18.5796Z" fill="#EB5764"/>
<path id="Vector_8" d="M1.57559 12.3837H0.673831C0.554172 12.3837 0.439414 12.3362 0.354802 12.2515C0.270191 12.1669 0.222656 12.0522 0.222656 11.9325V10.1278C0.222656 10.0082 0.270191 9.8934 0.354802 9.80878C0.439414 9.72417 0.554172 9.67664 0.673831 9.67664H1.57565C2.32197 9.67664 2.92918 10.2838 2.92918 11.0302C2.92912 11.7765 2.32191 12.3837 1.57559 12.3837Z" fill="#EB5764"/>
<path id="Vector_9" d="M16.1933 6.77512C15.6841 6.77512 15.2362 6.43129 15.1043 5.93904C14.9433 5.33816 15.3011 4.71847 15.9019 4.55751L17.8623 4.03221C17.9577 4.00663 18.0559 3.99365 18.1546 3.9936C18.6639 3.9936 19.1117 4.33749 19.2436 4.8298C19.2824 4.97282 19.2924 5.12212 19.2731 5.26905C19.2538 5.41597 19.2055 5.55761 19.1311 5.68574C19.0573 5.81428 18.9588 5.92692 18.8413 6.01713C18.7237 6.10734 18.5894 6.17333 18.4461 6.21127L16.4857 6.73657C16.3903 6.76213 16.292 6.77509 16.1933 6.77512ZM14.7662 10.1816H5.74341C5.18367 10.1816 4.72827 9.72621 4.72827 9.16646V8.4897C4.72827 7.92995 5.18367 7.47456 5.74341 7.47456H14.7662C15.326 7.47456 15.7814 7.92995 15.7814 8.4897V9.16646C15.7814 9.72615 15.3259 10.1816 14.7662 10.1816Z" fill="#E28826"/>
<path id="Vector_10" d="M14.7664 7.47456H14.6469C14.651 7.51165 14.6536 8.26411 14.6536 8.26411C14.6536 8.82386 14.1982 9.27925 13.6384 9.27925H4.73511C4.79147 9.78603 5.22202 10.1816 5.74357 10.1816H14.7664C15.3261 10.1816 15.7816 9.72621 15.7816 9.16646V8.4897C15.7816 7.92995 15.3261 7.47456 14.7664 7.47456ZM19.2438 4.82979C19.171 4.55852 18.9996 4.32417 18.7631 4.1726C18.7742 4.20301 18.7841 4.23407 18.7926 4.26583C18.8314 4.40885 18.8414 4.55815 18.8221 4.70508C18.8028 4.852 18.7545 4.99364 18.68 5.12177C18.6063 5.25031 18.5078 5.36295 18.3902 5.45316C18.2727 5.54337 18.1384 5.60936 17.9951 5.6473L16.0347 6.17259C15.8831 6.21339 15.7246 6.22197 15.5694 6.19778C15.4143 6.17359 15.2659 6.11716 15.1339 6.03215C15.2944 6.47412 15.7171 6.77518 16.1935 6.77518C16.292 6.77518 16.3902 6.76217 16.4859 6.73656L18.4463 6.21127C18.5896 6.17334 18.7239 6.10736 18.8414 6.01715C18.959 5.92694 19.0575 5.81429 19.1312 5.68574C19.2057 5.5576 19.2539 5.41597 19.2733 5.26904C19.2926 5.12212 19.2826 4.97282 19.2438 4.82979Z" fill="#D3771C"/>
<path id="Vector_11" d="M19.6199 0.282952C19.3147 1.49122 18.2595 2.40019 16.9785 2.48732C17.12 2.87785 17.4935 3.15822 17.9323 3.15822C17.9473 3.15822 19.0852 3.04496 19.0852 3.04496C19.6331 3.03125 20.0746 2.58131 20.0746 2.03017V1.128C20.0746 0.775494 19.8935 0.465004 19.6199 0.282952Z" fill="#E0485A"/>
<path id="Vector_12" d="M2.42357 9.97676C2.45837 10.0965 2.478 10.2226 2.478 10.3534C2.478 11.0998 1.87079 11.7069 1.12448 11.7069H0.222656V11.9325C0.222656 12.0522 0.270191 12.1669 0.354802 12.2515C0.439414 12.3362 0.554172 12.3837 0.673831 12.3837H1.57565C2.32197 12.3837 2.92918 11.7765 2.92918 11.0302C2.92912 10.6048 2.73142 10.2251 2.42357 9.97676ZM22.7625 7.84962C22.4078 6.64469 21.7061 5.60933 20.8688 4.94118C21.3486 5.53416 21.7374 6.25973 21.973 7.06006C22.6365 9.31359 22.6362 11.874 21.9723 14.0849C21.3069 16.3011 19.5466 17.7901 17.5921 17.7901H9.19113V18.5796H18.3816C20.3361 18.5796 22.0964 17.0906 22.7618 14.8744C23.4257 12.6636 23.426 10.1031 22.7625 7.84962Z" fill="#E0485A"/>
<path id="Vector_13" d="M5.75051 21.7398C3.63591 21.7398 1.91553 20.0195 1.91553 17.9048C1.91553 17.2238 2.09652 16.5546 2.43889 15.9697L2.56955 15.7464H8.94998L9.07995 15.9733C9.40591 16.5422 9.58544 17.2282 9.58544 17.9048C9.5855 20.0195 7.86511 21.7398 5.75051 21.7398Z" fill="#8D9C9B"/>
<path id="Vector_14" d="M5.75075 20.0479C4.56908 20.0479 3.60767 19.0865 3.60767 17.9048C3.60767 16.7232 4.56908 15.7618 5.75075 15.7618C6.93241 15.7618 7.89382 16.7232 7.89382 17.9048C7.89382 19.0865 6.93247 20.0479 5.75075 20.0479Z" fill="#D2E2E0"/>
<path id="Vector_15" d="M21.8633 18.6368C21.6135 18.6368 21.4498 18.617 21.4319 18.6148C21.3268 18.6014 21.2297 18.5515 21.1577 18.4738C21.0856 18.3961 21.0432 18.2955 21.0379 18.1897C20.9399 16.2339 21.9318 14.4112 23.6265 13.4328C24.4151 12.9775 25.3106 12.7369 26.2164 12.7369C27.5151 12.7369 28.7573 13.2168 29.7143 14.0883C29.7668 14.1361 29.8072 14.1956 29.8324 14.262C29.8575 14.3283 29.8666 14.3997 29.859 14.4703C29.7848 15.1584 29.1882 16.4599 27.4624 16.46C27.4252 16.46 27.2184 16.455 27.153 16.455C25.9413 16.455 25.0438 16.8347 24.4093 17.6158C23.688 18.5042 22.5046 18.6368 21.8633 18.6368Z" fill="#F27C7B"/>
<path id="Vector_16" opacity="0.5" d="M22.8925 16.6918C22.8193 16.6917 22.7472 16.6739 22.6824 16.6397C22.6177 16.6056 22.5622 16.5563 22.5207 16.4959C22.4793 16.4356 22.4531 16.3661 22.4445 16.2934C22.4359 16.2207 22.4451 16.147 22.4713 16.0787C23.0367 14.6073 24.4756 13.6187 26.0523 13.6187C26.6305 13.6187 27.1862 13.7443 27.7043 13.9919C27.7577 14.0175 27.8056 14.0533 27.8452 14.0974C27.8848 14.1414 27.9154 14.1929 27.9351 14.2488C27.9548 14.3046 27.9633 14.3638 27.9601 14.423C27.957 14.4822 27.9422 14.5401 27.9166 14.5936C27.8911 14.647 27.8553 14.695 27.8112 14.7346C27.7671 14.7742 27.7157 14.8048 27.6598 14.8245C27.6039 14.8442 27.5447 14.8527 27.4855 14.8495C27.4264 14.8464 27.3684 14.8315 27.315 14.8059C26.9195 14.6169 26.4947 14.5211 26.0523 14.5211C24.8465 14.5211 23.746 15.2771 23.3138 16.4023C23.281 16.4875 23.2232 16.5607 23.148 16.6124C23.0728 16.6641 22.9837 16.6917 22.8925 16.6918Z" fill="white"/>
<path id="Vector_17" d="M24.1074 7.8696H23.2066C22.0249 7.8696 21.0635 6.90819 21.0635 5.72652C21.0635 4.54485 22.0249 3.58344 23.2066 3.58344H24.1074C24.227 3.58344 24.3418 3.63098 24.4264 3.71559C24.511 3.8002 24.5586 3.91496 24.5586 4.03462V7.41843C24.5586 7.53808 24.511 7.65284 24.4264 7.73745C24.3418 7.82207 24.227 7.8696 24.1074 7.8696Z" fill="#EB5764"/>
<path id="Vector_18" d="M24.1074 3.58344V6.33203C24.1074 6.55826 23.9054 6.74166 23.6562 6.74166H22.7554C22.0802 6.74166 21.4778 6.45602 21.0847 6.01152C21.2248 7.0586 22.1218 7.8696 23.2066 7.8696H24.1074C24.2271 7.8696 24.3418 7.82207 24.4264 7.73745C24.5111 7.65284 24.5586 7.53808 24.5586 7.41843V4.03462C24.5586 3.91496 24.5111 3.8002 24.4264 3.71559C24.3418 3.63098 24.2271 3.58344 24.1074 3.58344Z" fill="#DF485A"/>
<path id="Vector_19" opacity="0.1" d="M9.08059 15.9734L8.95063 15.7465H2.57014L2.43948 15.9698C2.21225 16.358 2.05779 16.7836 1.97852 17.2249H7.44781C7.16784 18.8265 5.76821 20.0479 4.08773 20.0479C3.44675 20.0485 2.81875 19.8673 2.27653 19.5255C2.88842 20.8322 4.21546 21.7398 5.7511 21.7398C7.8657 21.7398 9.58608 20.0195 9.58608 17.9048C9.58602 17.2282 9.40649 16.5422 9.08059 15.9734Z" fill="black"/>
<path id="Vector_20" d="M11.5752 16.6609H1.80273C1.74137 16.6609 1.68066 16.6484 1.62431 16.6242C1.56796 16.5999 1.51714 16.5644 1.47498 16.5198C1.43281 16.4752 1.40018 16.4225 1.37908 16.3649C1.35798 16.3073 1.34885 16.246 1.35226 16.1847C1.493 13.6468 3.13381 10.6831 7.17657 10.6831V10.6836C10.0972 10.714 12.1789 12.5838 12.1789 15.2304C12.1789 15.7144 12.1114 15.9824 12.0083 16.336C11.981 16.4298 11.924 16.5121 11.8459 16.5707C11.7678 16.6293 11.6728 16.6609 11.5752 16.6609Z" fill="#F27C7B"/>
<path id="Vector_21" d="M7.1875 10.6839C8.85983 11.3941 9.92314 12.888 9.92314 14.7791C9.92314 15.2631 9.85564 15.5311 9.75257 15.8848C9.72526 15.9786 9.66826 16.0609 9.59015 16.1195C9.51204 16.1781 9.41703 16.2098 9.31939 16.2098H1.35352C1.35357 16.3247 1.39564 16.4359 1.47504 16.5198C1.51721 16.5644 1.56802 16.5999 1.62438 16.6242C1.68074 16.6484 1.74146 16.661 1.80282 16.6609H11.5753C11.6729 16.6609 11.7679 16.6293 11.846 16.5707C11.9241 16.5121 11.9811 16.4297 12.0084 16.336C12.1115 15.9823 12.179 15.7143 12.179 15.2303C12.179 12.587 10.1024 10.7189 7.1875 10.6839Z" fill="#E0485A"/>
<path id="Vector_22" d="M29.7143 14.0882C29.4473 13.8456 29.1557 13.6315 28.8442 13.4493C28.844 13.4513 28.8442 13.4531 28.8439 13.4551C28.7697 14.1432 28.1731 15.4447 26.4473 15.4448C26.4101 15.4448 26.2033 15.4398 26.1379 15.4398C24.9262 15.4398 24.0287 15.8195 23.3943 16.6006C22.7405 17.4057 21.7086 17.5895 21.0433 17.6171C21.0322 17.8064 21.0283 17.9971 21.038 18.1897C21.0433 18.2955 21.0857 18.3961 21.1577 18.4738C21.2297 18.5516 21.3268 18.6014 21.4319 18.6148C21.4498 18.617 21.6136 18.6368 21.8633 18.6368C22.5046 18.6368 23.6881 18.5042 24.4094 17.6158C25.0439 16.8346 25.9413 16.4549 27.153 16.4549C27.2185 16.4549 27.4252 16.46 27.4624 16.46C29.1883 16.4598 29.7848 15.1583 29.8591 14.4702C29.8667 14.3997 29.8576 14.3283 29.8324 14.2619C29.8073 14.1955 29.7668 14.136 29.7143 14.0882Z" fill="#EB5764"/>
</g>
</svg>
