<svg xmlns="http://www.w3.org/2000/svg" width="101" height="101" viewBox="0 0 101 101" fill="none">
  <path d="M87.8737 83.4694C95.5978 74.6419 100.312 63.1394 100.312 50.5C100.312 22.8472 77.8091 0.34375 50.1562 0.34375C22.5034 0.34375 0 22.8472 0 50.5C0 78.1528 22.5034 100.656 50.1562 100.656C62.7956 100.656 74.2981 95.9416 83.1256 88.2175L94.5947 99.6866C95.2634 100.322 96.0994 100.656 96.9688 100.656C97.8381 100.656 98.6741 100.322 99.3428 99.6866C99.6528 99.3772 99.8987 99.0098 100.067 98.6053C100.234 98.2008 100.321 97.7671 100.321 97.3292C100.321 96.8913 100.234 96.4577 100.067 96.0532C99.8987 95.6487 99.6528 95.2812 99.3428 94.9719L87.8737 83.4694ZM6.6875 50.5C6.6875 26.5253 26.1816 7.03125 50.1562 7.03125C74.1309 7.03125 93.625 26.5253 93.625 50.5C93.625 74.4747 74.1309 93.9688 50.1562 93.9688C26.1816 93.9688 6.6875 74.4747 6.6875 50.5ZM30.0938 40.4688C30.0938 36.7906 33.1031 33.7812 36.7812 33.7812C40.4594 33.7812 43.4688 36.7906 43.4688 40.4688C43.4688 44.1469 40.4594 47.1562 36.7812 47.1562C33.1031 47.1562 30.0938 44.1469 30.0938 40.4688ZM70.2188 40.4688C70.2188 44.1469 67.2094 47.1562 63.5312 47.1562C59.8531 47.1562 56.8438 44.1469 56.8438 40.4688C56.8438 36.7906 59.8531 33.7812 63.5312 33.7812C67.2094 33.7812 70.2188 36.7906 70.2188 40.4688ZM68.5469 62.5041C68.725 62.9058 68.8222 63.3387 68.8329 63.778C68.8436 64.2174 68.7675 64.6545 68.6091 65.0644C68.4508 65.4744 68.2131 65.849 67.9098 66.1671C67.6065 66.4851 67.2435 66.7402 66.8416 66.9178C66.4069 67.1184 65.9388 67.2188 65.5041 67.2188C64.2334 67.2188 62.9963 66.4831 62.4278 65.2125C60.2878 60.3306 55.4394 57.1875 50.1562 57.1875C44.8731 57.1875 40.0247 60.3306 37.8512 65.2459C37.1156 66.9178 35.1428 67.7203 33.4375 66.9512C31.7656 66.2156 30.9966 64.2428 31.7322 62.5375C34.9756 55.2147 42.2316 50.5 50.1562 50.5C58.0809 50.5 65.3369 55.2147 68.5469 62.5041Z" fill="black" fill-opacity="0.05"/>
</svg>