<svg width="26" height="24" viewBox="0 0 26 24" fill="none" xmlns="http://www.w3.org/2000/svg">
<g id="Parcel Icon ">
<path id="Vector" d="M22.1366 16.9825V23.5635H0.00107799V16.9825C0.00107799 16.9825 -0.181726 15.1057 4.2137 14.0942C5.31865 13.8383 7.00857 13.2208 8.69443 12.2052H13.4433C15.1291 13.2167 16.8231 13.8383 17.924 14.0942C22.3194 15.1017 22.1366 16.9825 22.1366 16.9825Z" fill="#EA003D"/>
<path id="Vector_2" d="M13.4432 9.3413V12.6318C13.4432 16.1416 8.69434 16.1416 8.69434 12.6318L8.71059 9.3413H13.4432Z" fill="#F7B68B"/>
<path id="Vector_3" d="M15.9334 7.38326C15.9334 7.96823 15.6003 8.35415 15.1047 8.45571C14.9828 9.93033 14.2759 10.4706 13.0776 11.5268C12.4032 12.1402 11.6679 12.518 11.0748 12.518C10.4696 12.518 9.73834 12.1443 9.06399 11.5268C7.85748 10.4747 7.15877 9.92221 7.0369 8.44759C6.53723 8.34603 6.21631 7.96011 6.21631 7.38326C6.21631 6.81453 6.58192 6.33112 7.08158 6.193L7.10596 5.17742V5.1693H15.0437V5.17742L15.06 6.193C15.5556 6.33112 15.9334 6.81453 15.9334 7.38326Z" fill="#FCC397"/>
<path id="Vector_4" d="M12.4034 0.944488H9.73853C9.73853 -0.314829 12.4034 -0.314829 12.4034 0.944488Z" fill="#DB0044"/>
<path id="Vector_5" d="M15.4092 4.10091L15.2995 6.03051H6.81336C6.7768 5.51459 6.76055 4.61682 6.73212 4.10091C6.63056 2.31755 8.06862 0.80637 9.92916 0.80637H12.2081C14.0727 0.810432 15.5108 2.31755 15.4092 4.10091Z" fill="#EA003D"/>
<path id="Vector_6" d="M15.3485 4.98243V6.62767C15.3485 6.81047 15.1739 6.94047 14.987 6.90391C12.3924 6.40018 9.7251 6.40018 7.13048 6.90391C6.94362 6.94047 6.76894 6.80641 6.76894 6.62767V4.98243C9.61167 4.53964 12.5058 4.53964 15.3485 4.98243ZM4.43311 19.6393H5.17245V23.5635H4.43311V19.6393Z" fill="#DB0044"/>
<path id="Vector_7" d="M26.0001 13.4767V22.4626C26.0001 23.0719 25.5045 23.5635 24.8992 23.5635H14.5159C13.9066 23.5635 13.415 23.0679 13.415 22.4626V13.4767C13.415 12.8674 13.9106 12.3758 14.5159 12.3758H24.8992C25.5045 12.3718 26.0001 12.8674 26.0001 13.4767Z" fill="#FF9F3F"/>
<path id="Vector_8" d="M21.3569 12.3718V16.0116L19.7076 15.2032L18.0542 16.0116V12.3718H21.3569Z" fill="#F15A24"/>
<g id="Group">
<path id="Vector_9" d="M19.7279 21.9385C19.7279 22.0604 19.6223 22.166 19.4963 22.166H14.7394C14.6134 22.166 14.5078 22.0604 14.5078 21.9385C14.5078 21.8126 14.6134 21.707 14.7394 21.707H19.5004C19.6223 21.707 19.7279 21.8085 19.7279 21.9385ZM18.5904 20.9555C18.5904 21.0773 18.4848 21.1829 18.3589 21.1829H14.7394C14.6134 21.1829 14.5078 21.0773 14.5078 20.9555C14.5078 20.8295 14.6134 20.7239 14.7394 20.7239H18.3589C18.4848 20.7239 18.5904 20.8295 18.5904 20.9555Z" fill="#F28827"/>
</g>
<path id="Vector_10" d="M24.9071 20.4152V22.4748C24.9071 22.5926 24.8096 22.6901 24.6918 22.6901H20.8691C20.7513 22.6901 20.6538 22.5926 20.6538 22.4748V20.4152C20.6538 20.2974 20.7513 20.1999 20.8691 20.1999H24.6918C24.8096 20.1999 24.9071 20.2974 24.9071 20.4152Z" fill="white"/>
<g id="Group_2">
<path id="Vector_11" d="M21.1008 20.5858H21.3446V22.3001H21.1008V20.5858ZM21.6208 20.5858H21.8645V22.032H21.6208V20.5858ZM22.1408 20.5858H22.3845V22.032H22.1408V20.5858ZM22.6567 20.5858H22.9004V22.3001H22.6567V20.5858ZM23.1767 20.5858H23.4204V22.032H23.1767V20.5858ZM23.6967 20.5858H23.9404V22.032H23.6967V20.5858ZM24.2126 20.5858H24.4563V22.3001H24.2126V20.5858Z" fill="#343434"/>
</g>
</g>
</svg>
