
<svg width="11" height="11" viewBox="0 0 11 11" fill="none" xmlns="http://www.w3.org/2000/svg">
<path fill-rule="evenodd" clip-rule="evenodd" d="M10.9166 2.575C10.9166 7.17483 7.17473 10.9167 2.57491 10.9167C1.20125 10.9167 0.083247 9.79924 0.083247 8.425C0.083247 8.28525 0.0951625 8.14658 0.117912 8.01283C0.140085 7.87683 0.173668 7.74467 0.218085 7.61683C0.278752 7.44083 0.426663 7.30866 0.608085 7.26692L3.83916 6.52541C4.01575 6.48641 4.20316 6.53567 4.33533 6.66242C4.41225 6.73608 4.41441 6.73825 4.7665 7.41049C5.92023 6.88508 6.86544 5.94308 7.40927 4.7655C6.73761 4.41396 6.73598 4.41233 6.66231 4.33542C6.53556 4.20325 6.48411 4.01692 6.52527 3.83925L7.26682 0.608749C7.30852 0.426749 7.44123 0.278874 7.61727 0.217665C7.74619 0.173249 7.87836 0.139665 8.00998 0.11854C8.14486 0.0952488 8.28407 0.0833321 8.4249 0.0833321C9.79911 0.0833321 10.9166 1.20079 10.9166 2.575ZM9.83323 2.575C9.83323 1.79825 9.20165 1.16667 8.4249 1.16667C8.36586 1.16667 8.30736 1.17046 8.24723 1.17804L7.67307 3.68108C7.76677 3.72983 7.86915 3.78346 7.96394 3.83329C8.43086 4.07704 8.79919 4.26987 8.60582 4.69508C7.96936 6.5075 6.5074 7.97 4.71666 8.59833C4.26116 8.7817 4.08226 8.44045 3.8357 7.97014L3.83483 7.96841C3.80197 7.90485 3.76701 7.83819 3.73271 7.7729C3.71501 7.7391 3.69746 7.70567 3.68042 7.67317L1.17792 8.24733C1.17034 8.30583 1.16658 8.36491 1.16658 8.425C1.16658 9.20175 1.79867 9.83333 2.57491 9.83333C6.57727 9.83333 9.83323 6.57683 9.83323 2.575Z" fill="#ABA8B0"/>
</svg>
