<svg xmlns="http://www.w3.org/2000/svg" width="19" height="18" viewBox="0 0 19 18" fill="none">
  <g clip-path="url(#clip0_320_121023)">
    <path d="M9.91699 0.000411987C4.94695 0.000411987 0.916992 4.02958 0.916992 9.00002C0.916992 13.9705 4.94655 17.9996 9.91699 17.9996C14.8878 17.9996 18.917 13.9705 18.917 9.00002C18.917 4.02958 14.8878 0.000411987 9.91699 0.000411987ZM9.91699 2.6914C10.7065 2.69135 11.4637 3.00492 12.022 3.56315C12.5803 4.12137 12.8939 4.87851 12.894 5.66801C12.894 6.45751 12.5805 7.21469 12.0223 7.77299C11.464 8.33128 10.7069 8.64496 9.91739 8.64501C9.12789 8.64507 8.37071 8.33149 7.81241 7.77327C7.25411 7.21504 6.94043 6.4579 6.94038 5.6684C6.94033 4.8789 7.25391 4.12172 7.81213 3.56342C8.37035 3.00513 9.12749 2.69145 9.91699 2.6914ZM9.91502 15.6466C8.33793 15.6484 6.81226 15.0858 5.61386 14.0606C5.4744 13.9416 5.36239 13.7938 5.28555 13.6273C5.2087 13.4609 5.16885 13.2797 5.16873 13.0964C5.16873 11.4293 6.51798 10.0951 8.18546 10.0951H11.6493C13.3172 10.0951 14.6613 11.4293 14.6613 13.0964C14.6614 13.2797 14.6217 13.4608 14.5449 13.6272C14.4681 13.7936 14.3561 13.9413 14.2166 14.0602C13.0182 15.0858 11.4923 15.6486 9.91502 15.6466Z" fill="#9E9E9E"/>
  </g>
  <defs>
    <clipPath id="clip0_320_121023">
      <rect width="18" height="18" fill="white" transform="translate(0.916992)"/>
    </clipPath>
  </defs>
</svg>