<svg xmlns="http://www.w3.org/2000/svg" width="19" height="18" viewBox="0 0 19 18" fill="none">
  <path d="M18.917 13.5V17.1C18.917 17.3387 18.8222 17.5676 18.6534 17.7364C18.4846 17.9052 18.2557 18 18.017 18H14.417C14.1783 18 13.9494 17.9052 13.7806 17.7364C13.6118 17.5676 13.517 17.3387 13.517 17.1V13.5C13.517 13.2613 13.6118 13.0324 13.7806 12.8636C13.9494 12.6948 14.1783 12.6 14.417 12.6H15.317V11.25C15.317 11.1307 15.2696 11.0162 15.1852 10.9318C15.1008 10.8474 14.9863 10.8 14.867 10.8H4.96699C4.84764 10.8 4.73319 10.8474 4.64879 10.9318C4.5644 11.0162 4.51699 11.1307 4.51699 11.25V12.6H5.41699C5.65569 12.6 5.88461 12.6948 6.05339 12.8636C6.22217 13.0324 6.31699 13.2613 6.31699 13.5V17.1C6.31699 17.3387 6.22217 17.5676 6.05339 17.7364C5.88461 17.9052 5.65569 18 5.41699 18H1.81699C1.5783 18 1.34938 17.9052 1.1806 17.7364C1.01181 17.5676 0.916992 17.3387 0.916992 17.1V13.5C0.916992 13.2613 1.01181 13.0324 1.1806 12.8636C1.34938 12.6948 1.5783 12.6 1.81699 12.6H2.71699V9.9C2.71699 9.6613 2.81181 9.43239 2.9806 9.2636C3.14938 9.09482 3.3783 9 3.61699 9H9.01699V6.3H7.21699C6.9783 6.3 6.74938 6.20518 6.5806 6.0364C6.41181 5.86761 6.31699 5.63869 6.31699 5.4V0.9C6.31699 0.661305 6.41181 0.432387 6.5806 0.263604C6.74938 0.0948211 6.9783 0 7.21699 0H12.617C12.8557 0 13.0846 0.0948211 13.2534 0.263604C13.4222 0.432387 13.517 0.661305 13.517 0.9V5.4C13.517 5.63869 13.4222 5.86761 13.2534 6.0364C13.0846 6.20518 12.8557 6.3 12.617 6.3H10.817V9H16.217C16.4557 9 16.6846 9.09482 16.8534 9.2636C17.0222 9.43239 17.117 9.6613 17.117 9.9V12.6H18.017C18.2557 12.6 18.4846 12.6948 18.6534 12.8636C18.8222 13.0324 18.917 13.2613 18.917 13.5Z" fill="#9E9E9E"/>
</svg>