<svg xmlns="http://www.w3.org/2000/svg" width="19" height="18" viewBox="0 0 19 18" fill="none">
  <g clip-path="url(#clip0_320_121001)">
    <path d="M9.91699 10.0547C10.2082 10.0547 10.4443 9.81859 10.4443 9.52734C10.4443 9.2361 10.2082 9 9.91699 9C9.62575 9 9.38965 9.2361 9.38965 9.52734C9.38965 9.81859 9.62575 10.0547 9.91699 10.0547Z" fill="#9E9E9E"/>
    <path d="M9.91699 0C4.96144 0 0.916992 4.04469 0.916992 9C0.916992 13.9557 4.96168 18 9.91699 18C14.8726 18 18.917 13.9553 18.917 9C18.917 4.04445 14.8723 0 9.91699 0ZM9.91699 2.14453C13.3385 2.14453 16.1825 4.66411 16.6913 7.94531H14.8625C13.703 7.94531 12.6013 7.48002 11.84 6.66875C10.7994 5.55971 9.03468 5.55936 7.99395 6.66872C7.23264 7.48002 6.13098 7.94531 4.97142 7.94531H3.14266C3.65148 4.66411 6.49548 2.14453 9.91699 2.14453ZM9.91699 11.1094C9.04469 11.1094 8.33496 10.3997 8.33496 9.52734C8.33496 8.65498 9.04469 7.94531 9.91699 7.94531C10.7894 7.94531 11.499 8.65498 11.499 9.52734C11.499 10.3997 10.7894 11.1094 9.91699 11.1094ZM3.53332 11.4995C4.13695 11.2627 4.57282 11.1094 5.1709 11.1094C7.09352 11.1094 8.58875 12.8227 8.29914 14.7477H8.29791C8.25495 15.041 8.17087 15.3267 8.04812 15.5965C5.98238 15.0105 4.31066 13.478 3.53332 11.4995ZM11.7863 15.5964C11.6633 15.3267 11.5791 15.041 11.5361 14.7477H11.5348C11.1974 12.5045 13.2681 10.6537 15.4145 11.1992C15.6407 11.2567 15.9239 11.3517 16.3006 11.4995C15.5234 13.4778 13.8518 15.0103 11.7863 15.5964Z" fill="#9E9E9E"/>
  </g>
  <defs>
    <clipPath id="clip0_320_121001">
      <rect width="18" height="18" fill="white" transform="translate(0.916992)"/>
    </clipPath>
  </defs>
</svg>