<svg xmlns="http://www.w3.org/2000/svg" width="24" height="24" viewBox="0 0 24 24" fill="none">
<path d="M18.0693 8.51001L9.50929 4.23001C3.75929 1.35001 1.39929 3.71001 4.27929 9.46001L5.14929 11.2C5.39929 11.71 5.39929 12.3 5.14929 12.81L4.27929 14.54C1.39929 20.29 3.74929 22.65 9.50929 19.77L18.0693 15.49C21.9093 13.57 21.9093 10.43 18.0693 8.51001ZM14.8393 12.75H9.43929C9.02929 12.75 8.68929 12.41 8.68929 12C8.68929 11.59 9.02929 11.25 9.43929 11.25H14.8393C15.2493 11.25 15.5893 11.59 15.5893 12C15.5893 12.41 15.2493 12.75 14.8393 12.75Z" fill="#3369FF"/>
</svg>