<svg xmlns="http://www.w3.org/2000/svg" width="19" height="18" viewBox="0 0 19 18" fill="none">
  <g clip-path="url(#clip0_320_121012)">
    <path fill-rule="evenodd" clip-rule="evenodd" d="M12.1218 0.580203C12.1218 0.580203 12.7488 2.39947 12.7488 2.39862C13.27 2.62201 13.7627 2.90671 14.2165 3.2467L16.106 2.88C16.3254 2.83732 16.5514 2.91516 16.6988 3.08346C17.465 3.96237 18.0533 4.98169 18.431 6.08484C18.4666 6.18891 18.4744 6.30052 18.4534 6.40851C18.4323 6.5165 18.3833 6.61708 18.3112 6.70017C18.3112 6.70017 17.0496 8.15271 17.0496 8.15189C17.1165 8.71502 17.1165 9.2841 17.0496 9.84722L18.3112 11.2998C18.3833 11.3829 18.4323 11.4834 18.4534 11.5914C18.4744 11.6994 18.4666 11.811 18.431 11.9151C18.0533 13.0182 17.465 14.0376 16.6988 14.9165C16.5514 15.0848 16.3254 15.1626 16.106 15.1199C16.106 15.1199 14.2165 14.7532 14.2173 14.7532C13.7631 15.0929 13.2702 15.3774 12.7488 15.6005L12.1218 17.4197C12.086 17.5237 12.0235 17.6164 11.9407 17.6887C11.8578 17.761 11.7574 17.8103 11.6496 17.8316C10.5051 18.056 9.32798 18.056 8.18352 17.8316C8.07566 17.8103 7.97529 17.761 7.89243 17.6887C7.80957 17.6164 7.74713 17.5237 7.71133 17.4197C7.71133 17.4197 7.08428 15.6005 7.08428 15.6013C6.56311 15.3779 6.07042 15.0932 5.61664 14.7532L3.72707 15.12C3.50772 15.1627 3.28168 15.0848 3.13433 14.9165C2.3681 14.0376 1.77981 13.0183 1.40213 11.9151C1.36644 11.8111 1.35871 11.6995 1.37972 11.5915C1.40073 11.4835 1.44973 11.3829 1.52183 11.2998C1.52183 11.2998 2.78352 9.84726 2.78352 9.84808C2.71654 9.28494 2.71654 8.71585 2.78352 8.15271L1.52186 6.70017C1.44977 6.61707 1.40077 6.51649 1.37975 6.40851C1.35874 6.30052 1.36645 6.18891 1.40213 6.08484C1.77982 4.98169 2.3681 3.96236 3.1343 3.08343C3.28164 2.91513 3.50769 2.83729 3.72704 2.88C3.72704 2.88 5.6166 3.2467 5.61578 3.2467C6.06991 2.907 6.56287 2.62258 7.08425 2.39944L7.7113 0.580203C7.7471 0.476239 7.80954 0.383485 7.8924 0.311205C7.97526 0.238925 8.07563 0.189648 8.18349 0.168296C9.32794 -0.0560764 10.5051 -0.0560764 11.6495 0.168296C11.7574 0.189637 11.8578 0.238909 11.9406 0.31119C12.0235 0.383471 12.086 0.476231 12.1218 0.580203ZM9.91654 5.29871C7.87375 5.29871 6.21523 6.95721 6.21523 9.00003C6.21523 11.0429 7.87372 12.7013 9.91654 12.7013C11.9594 12.7013 13.6178 11.0428 13.6178 9C13.6178 6.95721 11.9593 5.29871 9.91654 5.29871ZM9.91654 6.55453C11.2661 6.55453 12.362 7.65045 12.362 9C12.362 10.3495 11.2661 11.4455 9.91654 11.4455C8.56696 11.4455 7.47107 10.3496 7.47107 9C7.47107 7.65042 8.56696 6.55453 9.91654 6.55453Z" fill="#9E9E9E"/>
  </g>
  <defs>
    <clipPath id="clip0_320_121012">
      <rect width="18" height="18" fill="white" transform="translate(0.916992)"/>
    </clipPath>
  </defs>
</svg>