<svg width="12" height="12" viewBox="0 0 12 12" fill="none" xmlns="http://www.w3.org/2000/svg">
<g id="Group">
<path id="Vector" d="M11.9687 4.34561C11.9303 4.22669 11.8578 4.1217 11.7602 4.04372C11.6625 3.96574 11.5441 3.91822 11.4197 3.90708L7.95612 3.59256L6.58656 0.386939C6.48554 0.152019 6.25557 0 6.00005 0C5.74453 0 5.51453 0.152043 5.41356 0.387525L4.04398 3.59259L0.579899 3.90708C0.455588 3.91847 0.337351 3.96609 0.23985 4.04404C0.142349 4.12199 0.0698706 4.22685 0.0314016 4.34561C-0.0476082 4.58861 0.0253546 4.85513 0.217898 5.02313L2.83593 7.31913L2.06393 10.7198C2.00744 10.9698 2.10448 11.2283 2.31195 11.3782C2.42344 11.4588 2.55392 11.4998 2.68548 11.4998C2.79892 11.4998 2.91143 11.4692 3.01244 11.4088L6.00005 9.6232L8.98658 11.4088C9.20511 11.5403 9.4806 11.5283 9.68761 11.3782C9.78895 11.3049 9.86649 11.2033 9.91059 11.0863C9.95469 10.9692 9.96339 10.8417 9.93563 10.7198L9.16365 7.31913L11.7817 5.0236C11.8758 4.94135 11.9438 4.83324 11.977 4.7127C12.0103 4.59216 12.0074 4.46451 11.9687 4.34561Z" fill="#FFC107"/>
</g>
</svg>
