<svg width="15" height="11" viewBox="0 0 15 11" fill="none" xmlns="http://www.w3.org/2000/svg">
<g id="Group">
<path id="Vector" d="M14.8959 3.45373C14.8603 3.34993 14.7339 3.2692 14.6284 3.2692H13.2577C13.1523 3.2692 13.0259 3.34993 12.9902 3.45373C12.9553 3.55533 12.9292 3.64598 12.9119 3.73123L11.9963 1.1983C11.8453 0.780618 11.4454 0.5 11.0013 0.5H3.99882C3.55469 0.5 3.15484 0.780618 3.00376 1.19837L2.08816 3.73154C2.07079 3.64621 2.04472 3.55544 2.00979 3.45373C1.97414 3.34993 1.84772 3.2692 1.74225 3.2692H0.371616C0.266142 3.2692 0.139725 3.34993 0.104073 3.45373C-0.0347352 3.85788 -0.0346592 4.08924 0.104111 4.49342C0.139763 4.59722 0.26618 4.67795 0.371654 4.67795H1.74229C1.74358 4.67795 1.74495 4.67761 1.74628 4.67757L1.7256 4.73485C1.44612 4.82771 1.24433 5.0908 1.24433 5.40149V10.0445C1.24433 10.0888 1.25306 10.1328 1.27004 10.1737C1.28701 10.2147 1.31189 10.252 1.34326 10.2833C1.37462 10.3147 1.41186 10.3396 1.45285 10.3566C1.49383 10.3735 1.53776 10.3823 1.58212 10.3823H3.28213C3.37172 10.3823 3.45763 10.3467 3.52098 10.2833C3.58433 10.22 3.61992 10.1341 3.61992 10.0445V8.40015H11.3802V10.0445C11.3802 10.1341 11.4157 10.22 11.4791 10.2833C11.5424 10.3467 11.6283 10.3823 11.7179 10.3823H13.4179C13.4623 10.3823 13.5062 10.3735 13.5472 10.3566C13.5882 10.3396 13.6254 10.3147 13.6568 10.2833C13.6882 10.252 13.7131 10.2147 13.73 10.1737C13.747 10.1328 13.7557 10.0888 13.7557 10.0445V5.40149C13.7557 5.09088 13.554 4.82782 13.2747 4.73489L13.2539 4.67757C13.2552 4.67761 13.2565 4.67792 13.2578 4.67792H14.6284C14.7339 4.67792 14.8603 4.59719 14.896 4.49338C15.0347 4.08924 15.0346 3.85788 14.8959 3.45373ZM4.12817 1.74304H10.871L11.9393 4.69867H3.05986L4.12817 1.74304ZM4.31623 6.78082H2.89402C2.58889 6.78082 2.34157 6.5335 2.34157 6.22837C2.34157 5.92327 2.58885 5.67591 2.89402 5.67591H4.31623C4.62133 5.67591 4.86869 5.92323 4.86869 6.22837C4.86873 6.5335 4.62133 6.78082 4.31623 6.78082ZM12.1059 6.78082H10.6837C10.3786 6.78082 10.1313 6.5335 10.1313 6.22837C10.1313 5.92327 10.3786 5.67591 10.6837 5.67591H12.1059C12.4111 5.67591 12.6584 5.92323 12.6584 6.22837C12.6584 6.5335 12.4111 6.78082 12.1059 6.78082Z" fill="#757575"/>
</g>
</svg>
