<svg xmlns="http://www.w3.org/2000/svg" width="19" height="18" viewBox="0 0 19 18" fill="none">
  <g clip-path="url(#clip0_320_121005)">
    <path d="M15.542 13.5C13.6812 13.5 12.167 11.9858 12.167 10.125C12.167 8.26425 13.6812 6.75 15.542 6.75H17.417V5.25C17.417 4.42275 16.7442 3.75 15.917 3.75H15.167V2.25C15.167 1.42275 14.4942 0.75 13.667 0.75H3.16699C2.63647 0.751271 2.12347 0.940093 1.71873 1.28308C1.31398 1.62607 1.04354 2.10112 0.955242 2.62425C0.938742 2.68575 0.916992 2.74575 0.916992 2.8125V14.25C0.916992 15.4905 1.92649 16.5 3.16699 16.5H15.917C16.7442 16.5 17.417 15.8273 17.417 15V13.5H15.542ZM2.41699 3C2.41699 2.58675 2.75299 2.25 3.16699 2.25H13.667V3.75H3.16699C2.75299 3.75 2.41699 3.41325 2.41699 3Z" fill="#9E9E9E"/>
    <path d="M18.3545 7.875H15.542C14.3015 7.875 13.292 8.8845 13.292 10.125C13.292 11.3655 14.3015 12.375 15.542 12.375H18.3545C18.5037 12.375 18.6468 12.3157 18.7522 12.2102C18.8577 12.1048 18.917 11.9617 18.917 11.8125V8.4375C18.917 8.28832 18.8577 8.14524 18.7522 8.03975C18.6468 7.93426 18.5037 7.875 18.3545 7.875ZM15.542 10.875C15.3431 10.875 15.1523 10.796 15.0117 10.6553C14.871 10.5147 14.792 10.3239 14.792 10.125C14.792 9.92609 14.871 9.73532 15.0117 9.59467C15.1523 9.45402 15.3431 9.375 15.542 9.375C15.7409 9.375 15.9317 9.45402 16.0723 9.59467C16.213 9.73532 16.292 9.92609 16.292 10.125C16.292 10.3239 16.213 10.5147 16.0723 10.6553C15.9317 10.796 15.7409 10.875 15.542 10.875Z" fill="#9E9E9E"/>
  </g>
  <defs>
    <clipPath id="clip0_320_121005">
      <rect width="18" height="18" fill="white" transform="translate(0.916992)"/>
    </clipPath>
  </defs>
</svg>